<svg id="Layer_1" enable-background="new 0 0 512 512" height="512" viewBox="0 0 512 512" width="512" xmlns="http://www.w3.org/2000/svg"><g><path d="m30 30h25.21v-30h-55.21v55.211h30z"/><path d="m0 91.357h30v55.211h-30z"/><path d="m0 182.716h30v55.211h-30z"/><path d="m365.432 0h55.21v30h-55.21z"/><path d="m274.074 0h55.21v30h-55.21z"/><path d="m182.716 0h55.21v30h-55.21z"/><path d="m91.358 0h55.21v30h-55.21z"/><path d="m456.79 0v30h25.21v25.211h30v-55.211z"/><path d="m482 91.357h30v55.211h-30z"/><path d="m482 182.716h30v55.211h-30z"/><path d="m482 274.073h30v55.211h-30z"/><path d="m482 365.432h30v55.211h-30z"/><path d="m482 482h-25.21v30h55.21v-55.211h-30z"/><path d="m365.432 482h55.21v30h-55.21z"/><path d="m274.074 482h55.21v30h-55.21z"/><path d="m0 512h237.926v-237.926h-237.926zm30-207.926h177.926v177.926h-177.926z"/><path d="m359.963 115.934h14.89l-80.528 80.528v-14.89h-30v66.103h66.103v-30h-14.89l80.528-80.529v14.891h30v-66.103h-66.103z"/></g></svg>