{
    "asset" : {
        "generator" : "Khronos glTF Blender I/O v1.3.48",
        "version" : "2.0"
    },
    "scene" : 0,
    "scenes" : [
        {
            "name" : "Scene",
            "nodes" : [
                2,
                5,
                9,
                13
            ]
        }
    ],
    "nodes" : [
        {
            "mesh" : 0,
            "name" : "pCylinder6_lambert3_0"
        },
        {
            "mesh" : 1,
            "name" : "pCylinder6_lambert4_0"
        },
        {
            "children" : [
                0,
                1
            ],
            "name" : "pCylinder6",
            "rotation" : [
                0,
                -0.9969469308853149,
                0,
                0.0780830979347229
            ],
            "scale" : [
                0.1680358648300171,
                0.02798091620206833,
                0.1680358648300171
            ],
            "translation" : [
                -0.33693766593933105,
                0.06073670834302902,
                0.07030415534973145
            ]
        },
        {
            "mesh" : 2,
            "name" : "pCube19_lambert3_0"
        },
        {
            "children" : [
                3
            ],
            "name" : "pCube19",
            "scale" : [
                7.687174320220947,
                0.3325529396533966,
                7.687174320220947
            ],
            "translation" : [
                -0.016857147216796875,
                0.020659908652305603,
                0.014696121215820312
            ]
        },
        {
            "children" : [
                4
            ],
            "name" : "group1",
            "scale" : [
                0.19141656160354614,
                0.19141656160354614,
                0.19141656160354614
            ],
            "translation" : [
                0,
                0.04917658865451813,
                0
            ]
        },
        {
            "mesh" : 3,
            "name" : "pCube33_lambert3_0"
        },
        {
            "mesh" : 4,
            "name" : "pCube33_lambert4_0"
        },
        {
            "mesh" : 5,
            "name" : "pCube33_lambert6_0"
        },
        {
            "children" : [
                6,
                7,
                8
            ],
            "name" : "pCube33",
            "rotation" : [
                0,
                1,
                0,
                -6.123234262925839e-17
            ],
            "scale" : [
                0.21205700933933258,
                0.6920577883720398,
                0.21205700933933258
            ],
            "translation" : [
                0.04291868209838867,
                0.32602638006210327,
                -0.20097732543945312
            ]
        },
        {
            "mesh" : 6,
            "name" : "pCube36_lambert3_0"
        },
        {
            "mesh" : 7,
            "name" : "pCube36_lambert4_0"
        },
        {
            "mesh" : 8,
            "name" : "pCube36_lambert6_0"
        },
        {
            "children" : [
                10,
                11,
                12
            ],
            "name" : "pCube36",
            "rotation" : [
                0,
                1,
                0,
                -6.123234262925839e-17
            ],
            "scale" : [
                0.13684362173080444,
                0.13684362173080444,
                0.13684362173080444
            ],
            "translation" : [
                0.04479336738586426,
                0.05889745056629181,
                0.11988091468811035
            ]
        }
    ],
    "materials" : [
        {
            "doubleSided" : true,
            "emissiveFactor" : [
                0,
                0,
                0
            ],
            "name" : "lambert3.015",
            "pbrMetallicRoughness" : {
                "baseColorFactor" : [
                    0.08021900057792664,
                    0.46206900477409363,
                    0.5711219906806946,
                    1
                ],
                "metallicFactor" : 0,
                "roughnessFactor" : 0.6000000238418579
            }
        },
        {
            "doubleSided" : true,
            "emissiveFactor" : [
                0,
                0,
                0
            ],
            "name" : "lambert4.015",
            "pbrMetallicRoughness" : {
                "baseColorFactor" : [
                    0.00972133968025446,
                    0.14702899754047394,
                    0.29177701473236084,
                    1
                ],
                "metallicFactor" : 0,
                "roughnessFactor" : 0.6000000238418579
            }
        },
        {
            "doubleSided" : true,
            "emissiveFactor" : [
                0,
                0,
                0
            ],
            "name" : "lambert6.015",
            "pbrMetallicRoughness" : {
                "baseColorFactor" : [
                    0.75,
                    0.75,
                    0.75,
                    1
                ],
                "metallicFactor" : 0,
                "roughnessFactor" : 0.6000000238418579
            }
        }
    ],
    "meshes" : [
        {
            "name" : "pCylinder6_lambert3_0.015",
            "primitives" : [
                {
                    "attributes" : {
                        "POSITION" : 0,
                        "NORMAL" : 1,
                        "TEXCOORD_0" : 2
                    },
                    "indices" : 3,
                    "material" : 0
                }
            ]
        },
        {
            "name" : "pCylinder6_lambert4_0.015",
            "primitives" : [
                {
                    "attributes" : {
                        "POSITION" : 4,
                        "NORMAL" : 5,
                        "TEXCOORD_0" : 6
                    },
                    "indices" : 7,
                    "material" : 1
                }
            ]
        },
        {
            "name" : "pCube19_lambert3_0.015",
            "primitives" : [
                {
                    "attributes" : {
                        "POSITION" : 8,
                        "NORMAL" : 9,
                        "TEXCOORD_0" : 10
                    },
                    "indices" : 11,
                    "material" : 0
                }
            ]
        },
        {
            "name" : "pCube33_lambert3_0.015",
            "primitives" : [
                {
                    "attributes" : {
                        "POSITION" : 12,
                        "NORMAL" : 13,
                        "TEXCOORD_0" : 14
                    },
                    "indices" : 15,
                    "material" : 0
                }
            ]
        },
        {
            "name" : "pCube33_lambert4_0.015",
            "primitives" : [
                {
                    "attributes" : {
                        "POSITION" : 16,
                        "NORMAL" : 17,
                        "TEXCOORD_0" : 18
                    },
                    "indices" : 19,
                    "material" : 1
                }
            ]
        },
        {
            "name" : "pCube33_lambert6_0.015",
            "primitives" : [
                {
                    "attributes" : {
                        "POSITION" : 20,
                        "NORMAL" : 21,
                        "TEXCOORD_0" : 22
                    },
                    "indices" : 23,
                    "material" : 2
                }
            ]
        },
        {
            "name" : "pCube36_lambert3_0.015",
            "primitives" : [
                {
                    "attributes" : {
                        "POSITION" : 24,
                        "NORMAL" : 25,
                        "TEXCOORD_0" : 26
                    },
                    "indices" : 27,
                    "material" : 0
                }
            ]
        },
        {
            "name" : "pCube36_lambert4_0.015",
            "primitives" : [
                {
                    "attributes" : {
                        "POSITION" : 28,
                        "NORMAL" : 29,
                        "TEXCOORD_0" : 30
                    },
                    "indices" : 31,
                    "material" : 1
                }
            ]
        },
        {
            "name" : "pCube36_lambert6_0.015",
            "primitives" : [
                {
                    "attributes" : {
                        "POSITION" : 32,
                        "NORMAL" : 33,
                        "TEXCOORD_0" : 34
                    },
                    "indices" : 35,
                    "material" : 2
                }
            ]
        }
    ],
    "accessors" : [
        {
            "bufferView" : 0,
            "componentType" : 5126,
            "count" : 644,
            "max" : [
                0.9877642393112183,
                10.268877029418945,
                0.9877642393112183
            ],
            "min" : [
                -0.9877643585205078,
                -1.0000004768371582,
                -0.9877645969390869
            ],
            "type" : "VEC3"
        },
        {
            "bufferView" : 1,
            "componentType" : 5126,
            "count" : 644,
            "type" : "VEC3"
        },
        {
            "bufferView" : 2,
            "componentType" : 5126,
            "count" : 644,
            "type" : "VEC2"
        },
        {
            "bufferView" : 3,
            "componentType" : 5123,
            "count" : 3240,
            "type" : "SCALAR"
        },
        {
            "bufferView" : 4,
            "componentType" : 5126,
            "count" : 561,
            "max" : [
                0.552821159362793,
                36.971866607666016,
                0.5528208017349243
            ],
            "min" : [
                -0.5528214573860168,
                10.268875122070312,
                -0.5528215765953064
            ],
            "type" : "VEC3"
        },
        {
            "bufferView" : 5,
            "componentType" : 5126,
            "count" : 561,
            "type" : "VEC3"
        },
        {
            "bufferView" : 6,
            "componentType" : 5126,
            "count" : 561,
            "type" : "VEC2"
        },
        {
            "bufferView" : 7,
            "componentType" : 5123,
            "count" : 3240,
            "type" : "SCALAR"
        },
        {
            "bufferView" : 8,
            "componentType" : 5126,
            "count" : 24,
            "max" : [
                0.5,
                0.5,
                0.5
            ],
            "min" : [
                -0.5,
                -0.5,
                -0.5
            ],
            "type" : "VEC3"
        },
        {
            "bufferView" : 9,
            "componentType" : 5126,
            "count" : 24,
            "type" : "VEC3"
        },
        {
            "bufferView" : 10,
            "componentType" : 5126,
            "count" : 24,
            "type" : "VEC2"
        },
        {
            "bufferView" : 11,
            "componentType" : 5123,
            "count" : 36,
            "type" : "SCALAR"
        },
        {
            "bufferView" : 12,
            "componentType" : 5126,
            "count" : 42,
            "max" : [
                0.3329535722732544,
                0.3256869912147522,
                0.5
            ],
            "min" : [
                -0.3394380211830139,
                -0.2680070996284485,
                0.5
            ],
            "type" : "VEC3"
        },
        {
            "bufferView" : 13,
            "componentType" : 5126,
            "count" : 42,
            "type" : "VEC3"
        },
        {
            "bufferView" : 14,
            "componentType" : 5126,
            "count" : 42,
            "type" : "VEC2"
        },
        {
            "bufferView" : 15,
            "componentType" : 5123,
            "count" : 60,
            "type" : "SCALAR"
        },
        {
            "bufferView" : 16,
            "componentType" : 5126,
            "count" : 375,
            "max" : [
                0.5,
                0.5,
                0.5
            ],
            "min" : [
                -0.5,
                -0.5,
                -0.5
            ],
            "type" : "VEC3"
        },
        {
            "bufferView" : 17,
            "componentType" : 5126,
            "count" : 375,
            "type" : "VEC3"
        },
        {
            "bufferView" : 18,
            "componentType" : 5126,
            "count" : 375,
            "type" : "VEC2"
        },
        {
            "bufferView" : 19,
            "componentType" : 5123,
            "count" : 972,
            "type" : "SCALAR"
        },
        {
            "bufferView" : 20,
            "componentType" : 5126,
            "count" : 8,
            "max" : [
                0.3329535722732544,
                0.3256869912147522,
                0.5
            ],
            "min" : [
                -0.09171442687511444,
                -0.11619473248720169,
                0.5
            ],
            "type" : "VEC3"
        },
        {
            "bufferView" : 21,
            "componentType" : 5126,
            "count" : 8,
            "type" : "VEC3"
        },
        {
            "bufferView" : 22,
            "componentType" : 5126,
            "count" : 8,
            "type" : "VEC2"
        },
        {
            "bufferView" : 23,
            "componentType" : 5123,
            "count" : 12,
            "type" : "SCALAR"
        },
        {
            "bufferView" : 24,
            "componentType" : 5126,
            "count" : 361,
            "max" : [
                1.0105044841766357,
                1.9172276258468628,
                0.5
            ],
            "min" : [
                -0.5181529521942139,
                -0.5,
                -0.5
            ],
            "type" : "VEC3"
        },
        {
            "bufferView" : 25,
            "componentType" : 5126,
            "count" : 361,
            "type" : "VEC3"
        },
        {
            "bufferView" : 26,
            "componentType" : 5126,
            "count" : 361,
            "type" : "VEC2"
        },
        {
            "bufferView" : 27,
            "componentType" : 5123,
            "count" : 792,
            "type" : "SCALAR"
        },
        {
            "bufferView" : 28,
            "componentType" : 5126,
            "count" : 18,
            "max" : [
                1.0105044841766357,
                -0.10664820671081543,
                0.5
            ],
            "min" : [
                -0.5,
                -0.21784286201000214,
                0.5
            ],
            "type" : "VEC3"
        },
        {
            "bufferView" : 29,
            "componentType" : 5126,
            "count" : 18,
            "type" : "VEC3"
        },
        {
            "bufferView" : 30,
            "componentType" : 5126,
            "count" : 18,
            "type" : "VEC2"
        },
        {
            "bufferView" : 31,
            "componentType" : 5123,
            "count" : 24,
            "type" : "SCALAR"
        },
        {
            "bufferView" : 32,
            "componentType" : 5126,
            "count" : 28,
            "max" : [
                0.7653862237930298,
                0.8135506510734558,
                0.5
            ],
            "min" : [
                -0.2248344123363495,
                0.11410841345787048,
                0.5
            ],
            "type" : "VEC3"
        },
        {
            "bufferView" : 33,
            "componentType" : 5126,
            "count" : 28,
            "type" : "VEC3"
        },
        {
            "bufferView" : 34,
            "componentType" : 5126,
            "count" : 28,
            "type" : "VEC2"
        },
        {
            "bufferView" : 35,
            "componentType" : 5123,
            "count" : 36,
            "type" : "SCALAR"
        }
    ],
    "bufferViews" : [
        {
            "buffer" : 0,
            "byteLength" : 7728,
            "byteOffset" : 0
        },
        {
            "buffer" : 0,
            "byteLength" : 7728,
            "byteOffset" : 7728
        },
        {
            "buffer" : 0,
            "byteLength" : 5152,
            "byteOffset" : 15456
        },
        {
            "buffer" : 0,
            "byteLength" : 6480,
            "byteOffset" : 20608
        },
        {
            "buffer" : 0,
            "byteLength" : 6732,
            "byteOffset" : 27088
        },
        {
            "buffer" : 0,
            "byteLength" : 6732,
            "byteOffset" : 33820
        },
        {
            "buffer" : 0,
            "byteLength" : 4488,
            "byteOffset" : 40552
        },
        {
            "buffer" : 0,
            "byteLength" : 6480,
            "byteOffset" : 45040
        },
        {
            "buffer" : 0,
            "byteLength" : 288,
            "byteOffset" : 51520
        },
        {
            "buffer" : 0,
            "byteLength" : 288,
            "byteOffset" : 51808
        },
        {
            "buffer" : 0,
            "byteLength" : 192,
            "byteOffset" : 52096
        },
        {
            "buffer" : 0,
            "byteLength" : 72,
            "byteOffset" : 52288
        },
        {
            "buffer" : 0,
            "byteLength" : 504,
            "byteOffset" : 52360
        },
        {
            "buffer" : 0,
            "byteLength" : 504,
            "byteOffset" : 52864
        },
        {
            "buffer" : 0,
            "byteLength" : 336,
            "byteOffset" : 53368
        },
        {
            "buffer" : 0,
            "byteLength" : 120,
            "byteOffset" : 53704
        },
        {
            "buffer" : 0,
            "byteLength" : 4500,
            "byteOffset" : 53824
        },
        {
            "buffer" : 0,
            "byteLength" : 4500,
            "byteOffset" : 58324
        },
        {
            "buffer" : 0,
            "byteLength" : 3000,
            "byteOffset" : 62824
        },
        {
            "buffer" : 0,
            "byteLength" : 1944,
            "byteOffset" : 65824
        },
        {
            "buffer" : 0,
            "byteLength" : 96,
            "byteOffset" : 67768
        },
        {
            "buffer" : 0,
            "byteLength" : 96,
            "byteOffset" : 67864
        },
        {
            "buffer" : 0,
            "byteLength" : 64,
            "byteOffset" : 67960
        },
        {
            "buffer" : 0,
            "byteLength" : 24,
            "byteOffset" : 68024
        },
        {
            "buffer" : 0,
            "byteLength" : 4332,
            "byteOffset" : 68048
        },
        {
            "buffer" : 0,
            "byteLength" : 4332,
            "byteOffset" : 72380
        },
        {
            "buffer" : 0,
            "byteLength" : 2888,
            "byteOffset" : 76712
        },
        {
            "buffer" : 0,
            "byteLength" : 1584,
            "byteOffset" : 79600
        },
        {
            "buffer" : 0,
            "byteLength" : 216,
            "byteOffset" : 81184
        },
        {
            "buffer" : 0,
            "byteLength" : 216,
            "byteOffset" : 81400
        },
        {
            "buffer" : 0,
            "byteLength" : 144,
            "byteOffset" : 81616
        },
        {
            "buffer" : 0,
            "byteLength" : 48,
            "byteOffset" : 81760
        },
        {
            "buffer" : 0,
            "byteLength" : 336,
            "byteOffset" : 81808
        },
        {
            "buffer" : 0,
            "byteLength" : 336,
            "byteOffset" : 82144
        },
        {
            "buffer" : 0,
            "byteLength" : 224,
            "byteOffset" : 82480
        },
        {
            "buffer" : 0,
            "byteLength" : 72,
            "byteOffset" : 82704
        }
    ],
    "buffers" : [
        {
            "byteLength" : 82776,
            "uri" : "data:application/octet-stream;base64,"
        }
    ]
}
