{
    "asset" : {
        "generator" : "Khronos glTF Blender I/O v1.3.48",
        "version" : "2.0"
    },
    "scene" : 0,
    "scenes" : [
        {
            "name" : "Scene",
            "nodes" : [
                8,
                11,
                14
            ]
        }
    ],
    "nodes" : [
        {
            "mesh" : 0,
            "name" : "pCube11_lambert3_0"
        },
        {
            "children" : [
                0
            ],
            "name" : "pCube11",
            "scale" : [
                7.687174320220947,
                0.3325529396533966,
                7.687174320220947
            ],
            "translation" : [
                -0.02062702178955078,
                0.020659908652305603,
                0.004154205322265625
            ]
        },
        {
            "mesh" : 1,
            "name" : "pSphere29_lambert6_0"
        },
        {
            "children" : [
                2
            ],
            "name" : "pSphere29",
            "scale" : [
                0.21629106998443604,
                0.21629106998443604,
                0.21629106998443604
            ],
            "translation" : [
                -1.9198932647705078,
                3.2851805686950684,
                0.004153728485107422
            ]
        },
        {
            "mesh" : 2,
            "name" : "pSphere30_lambert6_0"
        },
        {
            "children" : [
                4
            ],
            "name" : "pSphere30",
            "scale" : [
                0.21629106998443604,
                0.21629106998443604,
                0.21629106998443604
            ],
            "translation" : [
                -1.766951560974121,
                4.365596294403076,
                0.004153728485107422
            ]
        },
        {
            "mesh" : 3,
            "name" : "pSphere31_lambert6_0"
        },
        {
            "children" : [
                6
            ],
            "name" : "pSphere31",
            "scale" : [
                0.21629106998443604,
                0.21629106998443604,
                0.21629106998443604
            ],
            "translation" : [
                -1.1466889381408691,
                4.0838751792907715,
                0.004153728485107422
            ]
        },
        {
            "children" : [
                1,
                3,
                5,
                7
            ],
            "name" : "group1",
            "scale" : [
                0.19141656160354614,
                0.19141656160354614,
                0.19141656160354614
            ],
            "translation" : [
                0,
                0.04917658865451813,
                0
            ]
        },
        {
            "mesh" : 4,
            "name" : "pCube24_lambert3_0"
        },
        {
            "mesh" : 5,
            "name" : "pCube24_lambert4_0"
        },
        {
            "children" : [
                9,
                10
            ],
            "name" : "pCube24",
            "rotation" : [
                0,
                1,
                0,
                -6.123234262925839e-17
            ],
            "scale" : [
                0.326831191778183,
                0.504838764667511,
                0.326831191778183
            ],
            "translation" : [
                0.24590516090393066,
                0.3135562241077423,
                0.05959939956665039
            ]
        },
        {
            "mesh" : 6,
            "name" : "pCylinder8_lambert3_0"
        },
        {
            "mesh" : 7,
            "name" : "pCylinder8_lambert4_0"
        },
        {
            "children" : [
                12,
                13
            ],
            "name" : "pCylinder8",
            "scale" : [
                0.323906272649765,
                0.03577117249369621,
                0.323906272649765
            ],
            "translation" : [
                -0.32283520698547363,
                0.0643344298005104,
                0.04504215717315674
            ]
        }
    ],
    "materials" : [
        {
            "doubleSided" : true,
            "emissiveFactor" : [
                0,
                0,
                0
            ],
            "name" : "lambert3.008",
            "pbrMetallicRoughness" : {
                "baseColorFactor" : [
                    0.08021900057792664,
                    0.46206900477409363,
                    0.5711219906806946,
                    1
                ],
                "metallicFactor" : 0,
                "roughnessFactor" : 0.6000000238418579
            }
        },
        {
            "doubleSided" : true,
            "emissiveFactor" : [
                0,
                0,
                0
            ],
            "name" : "lambert6.008",
            "pbrMetallicRoughness" : {
                "baseColorFactor" : [
                    0.75,
                    0.75,
                    0.75,
                    1
                ],
                "metallicFactor" : 0,
                "roughnessFactor" : 0.6000000238418579
            }
        },
        {
            "doubleSided" : true,
            "emissiveFactor" : [
                0,
                0,
                0
            ],
            "name" : "lambert4.008",
            "pbrMetallicRoughness" : {
                "baseColorFactor" : [
                    0.00972133968025446,
                    0.14702899754047394,
                    0.29177701473236084,
                    1
                ],
                "metallicFactor" : 0,
                "roughnessFactor" : 0.6000000238418579
            }
        }
    ],
    "meshes" : [
        {
            "name" : "pCube11_lambert3_0.008",
            "primitives" : [
                {
                    "attributes" : {
                        "POSITION" : 0,
                        "NORMAL" : 1,
                        "TEXCOORD_0" : 2
                    },
                    "indices" : 3,
                    "material" : 0
                }
            ]
        },
        {
            "name" : "pSphere29_lambert6_0.008",
            "primitives" : [
                {
                    "attributes" : {
                        "POSITION" : 4,
                        "NORMAL" : 5,
                        "TEXCOORD_0" : 6
                    },
                    "indices" : 7,
                    "material" : 1
                }
            ]
        },
        {
            "name" : "pSphere30_lambert6_0.008",
            "primitives" : [
                {
                    "attributes" : {
                        "POSITION" : 8,
                        "NORMAL" : 9,
                        "TEXCOORD_0" : 10
                    },
                    "indices" : 7,
                    "material" : 1
                }
            ]
        },
        {
            "name" : "pSphere31_lambert6_0.008",
            "primitives" : [
                {
                    "attributes" : {
                        "POSITION" : 11,
                        "NORMAL" : 12,
                        "TEXCOORD_0" : 13
                    },
                    "indices" : 7,
                    "material" : 1
                }
            ]
        },
        {
            "name" : "pCube24_lambert3_0.008",
            "primitives" : [
                {
                    "attributes" : {
                        "POSITION" : 14,
                        "NORMAL" : 15,
                        "TEXCOORD_0" : 16
                    },
                    "indices" : 17,
                    "material" : 0
                }
            ]
        },
        {
            "name" : "pCube24_lambert4_0.008",
            "primitives" : [
                {
                    "attributes" : {
                        "POSITION" : 18,
                        "NORMAL" : 19,
                        "TEXCOORD_0" : 20
                    },
                    "indices" : 21,
                    "material" : 2
                }
            ]
        },
        {
            "name" : "pCylinder8_lambert3_0.008",
            "primitives" : [
                {
                    "attributes" : {
                        "POSITION" : 22,
                        "NORMAL" : 23,
                        "TEXCOORD_0" : 24
                    },
                    "indices" : 25,
                    "material" : 0
                }
            ]
        },
        {
            "name" : "pCylinder8_lambert4_0.008",
            "primitives" : [
                {
                    "attributes" : {
                        "POSITION" : 26,
                        "NORMAL" : 27,
                        "TEXCOORD_0" : 28
                    },
                    "indices" : 29,
                    "material" : 2
                }
            ]
        }
    ],
    "accessors" : [
        {
            "bufferView" : 0,
            "componentType" : 5126,
            "count" : 24,
            "max" : [
                0.5,
                0.5,
                0.5
            ],
            "min" : [
                -0.5,
                -0.5,
                -0.5
            ],
            "type" : "VEC3"
        },
        {
            "bufferView" : 1,
            "componentType" : 5126,
            "count" : 24,
            "type" : "VEC3"
        },
        {
            "bufferView" : 2,
            "componentType" : 5126,
            "count" : 24,
            "type" : "VEC2"
        },
        {
            "bufferView" : 3,
            "componentType" : 5123,
            "count" : 36,
            "type" : "SCALAR"
        },
        {
            "bufferView" : 4,
            "componentType" : 5126,
            "count" : 439,
            "max" : [
                1,
                1,
                1.0000001192092896
            ],
            "min" : [
                -1.000000238418579,
                -2.6435375213623047,
                -1.0000004768371582
            ],
            "type" : "VEC3"
        },
        {
            "bufferView" : 5,
            "componentType" : 5126,
            "count" : 439,
            "type" : "VEC3"
        },
        {
            "bufferView" : 6,
            "componentType" : 5126,
            "count" : 439,
            "type" : "VEC2"
        },
        {
            "bufferView" : 7,
            "componentType" : 5123,
            "count" : 2280,
            "type" : "SCALAR"
        },
        {
            "bufferView" : 8,
            "componentType" : 5126,
            "count" : 439,
            "max" : [
                1,
                3.3368287086486816,
                1.0000001192092896
            ],
            "min" : [
                -1.000000238418579,
                -2.6435375213623047,
                -1.0000004768371582
            ],
            "type" : "VEC3"
        },
        {
            "bufferView" : 9,
            "componentType" : 5126,
            "count" : 439,
            "type" : "VEC3"
        },
        {
            "bufferView" : 10,
            "componentType" : 5126,
            "count" : 439,
            "type" : "VEC2"
        },
        {
            "bufferView" : 11,
            "componentType" : 5126,
            "count" : 439,
            "max" : [
                1,
                -0.26315009593963623,
                1.0000001192092896
            ],
            "min" : [
                -1.000000238418579,
                -2.6435375213623047,
                -1.0000004768371582
            ],
            "type" : "VEC3"
        },
        {
            "bufferView" : 12,
            "componentType" : 5126,
            "count" : 439,
            "type" : "VEC3"
        },
        {
            "bufferView" : 13,
            "componentType" : 5126,
            "count" : 439,
            "type" : "VEC2"
        },
        {
            "bufferView" : 14,
            "componentType" : 5126,
            "count" : 219,
            "max" : [
                0.5,
                0.5,
                0.5
            ],
            "min" : [
                -0.5,
                -0.5,
                -0.5
            ],
            "type" : "VEC3"
        },
        {
            "bufferView" : 15,
            "componentType" : 5126,
            "count" : 219,
            "type" : "VEC3"
        },
        {
            "bufferView" : 16,
            "componentType" : 5126,
            "count" : 219,
            "type" : "VEC2"
        },
        {
            "bufferView" : 17,
            "componentType" : 5123,
            "count" : 540,
            "type" : "SCALAR"
        },
        {
            "bufferView" : 18,
            "componentType" : 5126,
            "count" : 18,
            "max" : [
                0.30444109439849854,
                0.24955600500106812,
                0.5
            ],
            "min" : [
                -0.29516610503196716,
                -0.05201524496078491,
                0.5
            ],
            "type" : "VEC3"
        },
        {
            "bufferView" : 19,
            "componentType" : 5126,
            "count" : 18,
            "type" : "VEC3"
        },
        {
            "bufferView" : 20,
            "componentType" : 5126,
            "count" : 18,
            "type" : "VEC2"
        },
        {
            "bufferView" : 21,
            "componentType" : 5123,
            "count" : 24,
            "type" : "SCALAR"
        },
        {
            "bufferView" : 22,
            "componentType" : 5126,
            "count" : 200,
            "max" : [
                0.5540727972984314,
                10.77326774597168,
                0.5540739297866821
            ],
            "min" : [
                -0.5540730357170105,
                7.2967848777771,
                -0.5540727376937866
            ],
            "type" : "VEC3"
        },
        {
            "bufferView" : 23,
            "componentType" : 5126,
            "count" : 200,
            "type" : "VEC3"
        },
        {
            "bufferView" : 24,
            "componentType" : 5126,
            "count" : 200,
            "type" : "VEC2"
        },
        {
            "bufferView" : 25,
            "componentType" : 5123,
            "count" : 720,
            "type" : "SCALAR"
        },
        {
            "bufferView" : 26,
            "componentType" : 5126,
            "count" : 805,
            "max" : [
                0.9877642393112183,
                11.90207290649414,
                0.9877643585205078
            ],
            "min" : [
                -0.9877643585205078,
                -1,
                -0.9877644777297974
            ],
            "type" : "VEC3"
        },
        {
            "bufferView" : 27,
            "componentType" : 5126,
            "count" : 805,
            "type" : "VEC3"
        },
        {
            "bufferView" : 28,
            "componentType" : 5126,
            "count" : 805,
            "type" : "VEC2"
        },
        {
            "bufferView" : 29,
            "componentType" : 5123,
            "count" : 3840,
            "type" : "SCALAR"
        }
    ],
    "bufferViews" : [
        {
            "buffer" : 0,
            "byteLength" : 288,
            "byteOffset" : 0
        },
        {
            "buffer" : 0,
            "byteLength" : 288,
            "byteOffset" : 288
        },
        {
            "buffer" : 0,
            "byteLength" : 192,
            "byteOffset" : 576
        },
        {
            "buffer" : 0,
            "byteLength" : 72,
            "byteOffset" : 768
        },
        {
            "buffer" : 0,
            "byteLength" : 5268,
            "byteOffset" : 840
        },
        {
            "buffer" : 0,
            "byteLength" : 5268,
            "byteOffset" : 6108
        },
        {
            "buffer" : 0,
            "byteLength" : 3512,
            "byteOffset" : 11376
        },
        {
            "buffer" : 0,
            "byteLength" : 4560,
            "byteOffset" : 14888
        },
        {
            "buffer" : 0,
            "byteLength" : 5268,
            "byteOffset" : 19448
        },
        {
            "buffer" : 0,
            "byteLength" : 5268,
            "byteOffset" : 24716
        },
        {
            "buffer" : 0,
            "byteLength" : 3512,
            "byteOffset" : 29984
        },
        {
            "buffer" : 0,
            "byteLength" : 5268,
            "byteOffset" : 33496
        },
        {
            "buffer" : 0,
            "byteLength" : 5268,
            "byteOffset" : 38764
        },
        {
            "buffer" : 0,
            "byteLength" : 3512,
            "byteOffset" : 44032
        },
        {
            "buffer" : 0,
            "byteLength" : 2628,
            "byteOffset" : 47544
        },
        {
            "buffer" : 0,
            "byteLength" : 2628,
            "byteOffset" : 50172
        },
        {
            "buffer" : 0,
            "byteLength" : 1752,
            "byteOffset" : 52800
        },
        {
            "buffer" : 0,
            "byteLength" : 1080,
            "byteOffset" : 54552
        },
        {
            "buffer" : 0,
            "byteLength" : 216,
            "byteOffset" : 55632
        },
        {
            "buffer" : 0,
            "byteLength" : 216,
            "byteOffset" : 55848
        },
        {
            "buffer" : 0,
            "byteLength" : 144,
            "byteOffset" : 56064
        },
        {
            "buffer" : 0,
            "byteLength" : 48,
            "byteOffset" : 56208
        },
        {
            "buffer" : 0,
            "byteLength" : 2400,
            "byteOffset" : 56256
        },
        {
            "buffer" : 0,
            "byteLength" : 2400,
            "byteOffset" : 58656
        },
        {
            "buffer" : 0,
            "byteLength" : 1600,
            "byteOffset" : 61056
        },
        {
            "buffer" : 0,
            "byteLength" : 1440,
            "byteOffset" : 62656
        },
        {
            "buffer" : 0,
            "byteLength" : 9660,
            "byteOffset" : 64096
        },
        {
            "buffer" : 0,
            "byteLength" : 9660,
            "byteOffset" : 73756
        },
        {
            "buffer" : 0,
            "byteLength" : 6440,
            "byteOffset" : 83416
        },
        {
            "buffer" : 0,
            "byteLength" : 7680,
            "byteOffset" : 89856
        }
    ],
    "buffers" : [
        {
            "byteLength" : 97536,
            "uri" : "data:application/octet-stream;base64,"
        }
    ]
}
