{
    "asset" : {
        "generator" : "Khronos glTF Blender I/O v1.3.48",
        "version" : "2.0"
    },
    "scene" : 0,
    "scenes" : [
        {
            "name" : "Scene",
            "nodes" : [
                2,
                5,
                8
            ]
        }
    ],
    "nodes" : [
        {
            "mesh" : 0,
            "name" : "pCube12_lambert3_0"
        },
        {
            "children" : [
                0
            ],
            "name" : "pCube12",
            "scale" : [
                7.687174320220947,
                0.3325529396533966,
                7.687174320220947
            ],
            "translation" : [
                -0.02666950225830078,
                0.020659908652305603,
                -0.007355690002441406
            ]
        },
        {
            "children" : [
                1
            ],
            "name" : "group1",
            "scale" : [
                0.19141656160354614,
                0.19141656160354614,
                0.19141656160354614
            ],
            "translation" : [
                0,
                0.04917658865451813,
                0
            ]
        },
        {
            "mesh" : 1,
            "name" : "pSphere11_lambert3_0"
        },
        {
            "mesh" : 2,
            "name" : "pSphere11_lambert4_0"
        },
        {
            "children" : [
                3,
                4
            ],
            "name" : "pSphere11",
            "rotation" : [
                0,
                1,
                0,
                -6.123233601181349e-17
            ],
            "scale" : [
                0.2595853805541992,
                0.2595853805541992,
                0.2595853805541992
            ],
            "translation" : [
                0.04758810997009277,
                0.26032814383506775,
                -0.3531268835067749
            ]
        },
        {
            "mesh" : 3,
            "name" : "pSphere12_lambert4_0"
        },
        {
            "mesh" : 4,
            "name" : "pSphere12_lambert6_0"
        },
        {
            "children" : [
                6,
                7
            ],
            "name" : "pSphere12",
            "rotation" : [
                0,
                1,
                0,
                -6.123234262925839e-17
            ],
            "scale" : [
                0.15024420619010925,
                0.15024420619010925,
                0.15024420619010925
            ],
            "translation" : [
                -0.4545602798461914,
                0.26032814383506775,
                -0.3531268835067749
            ]
        }
    ],
    "materials" : [
        {
            "doubleSided" : true,
            "emissiveFactor" : [
                0,
                0,
                0
            ],
            "name" : "lambert3.007",
            "pbrMetallicRoughness" : {
                "baseColorFactor" : [
                    0.08021900057792664,
                    0.46206900477409363,
                    0.5711219906806946,
                    1
                ],
                "metallicFactor" : 0,
                "roughnessFactor" : 0.6000000238418579
            }
        },
        {
            "doubleSided" : true,
            "emissiveFactor" : [
                0,
                0,
                0
            ],
            "name" : "lambert4.007",
            "pbrMetallicRoughness" : {
                "baseColorFactor" : [
                    0.00972133968025446,
                    0.14702899754047394,
                    0.29177701473236084,
                    1
                ],
                "metallicFactor" : 0,
                "roughnessFactor" : 0.6000000238418579
            }
        },
        {
            "doubleSided" : true,
            "emissiveFactor" : [
                0,
                0,
                0
            ],
            "name" : "lambert6.007",
            "pbrMetallicRoughness" : {
                "baseColorFactor" : [
                    0.75,
                    0.75,
                    0.75,
                    1
                ],
                "metallicFactor" : 0,
                "roughnessFactor" : 0.6000000238418579
            }
        }
    ],
    "meshes" : [
        {
            "name" : "pCube12_lambert3_0.007",
            "primitives" : [
                {
                    "attributes" : {
                        "POSITION" : 0,
                        "NORMAL" : 1,
                        "TEXCOORD_0" : 2
                    },
                    "indices" : 3,
                    "material" : 0
                }
            ]
        },
        {
            "name" : "pSphere11_lambert3_0.007",
            "primitives" : [
                {
                    "attributes" : {
                        "POSITION" : 4,
                        "NORMAL" : 5,
                        "TEXCOORD_0" : 6
                    },
                    "indices" : 7,
                    "material" : 0
                }
            ]
        },
        {
            "name" : "pSphere11_lambert4_0.007",
            "primitives" : [
                {
                    "attributes" : {
                        "POSITION" : 8,
                        "NORMAL" : 9,
                        "TEXCOORD_0" : 10
                    },
                    "indices" : 11,
                    "material" : 1
                }
            ]
        },
        {
            "name" : "pSphere12_lambert4_0.007",
            "primitives" : [
                {
                    "attributes" : {
                        "POSITION" : 12,
                        "NORMAL" : 13,
                        "TEXCOORD_0" : 14
                    },
                    "indices" : 15,
                    "material" : 1
                }
            ]
        },
        {
            "name" : "pSphere12_lambert6_0.007",
            "primitives" : [
                {
                    "attributes" : {
                        "POSITION" : 16,
                        "NORMAL" : 17,
                        "TEXCOORD_0" : 18
                    },
                    "indices" : 19,
                    "material" : 2
                }
            ]
        }
    ],
    "accessors" : [
        {
            "bufferView" : 0,
            "componentType" : 5126,
            "count" : 24,
            "max" : [
                0.5,
                0.5,
                0.5
            ],
            "min" : [
                -0.5,
                -0.5,
                -0.5
            ],
            "type" : "VEC3"
        },
        {
            "bufferView" : 1,
            "componentType" : 5126,
            "count" : 24,
            "type" : "VEC3"
        },
        {
            "bufferView" : 2,
            "componentType" : 5126,
            "count" : 24,
            "type" : "VEC2"
        },
        {
            "bufferView" : 3,
            "componentType" : 5123,
            "count" : 36,
            "type" : "SCALAR"
        },
        {
            "bufferView" : 4,
            "componentType" : 5126,
            "count" : 1045,
            "max" : [
                0.9951078295707703,
                -0.4506867527961731,
                -1.2524175643920898
            ],
            "min" : [
                -0.9951078295707703,
                -1.4187700748443604,
                -3.2401299476623535
            ],
            "type" : "VEC3"
        },
        {
            "bufferView" : 5,
            "componentType" : 5126,
            "count" : 1045,
            "type" : "VEC3"
        },
        {
            "bufferView" : 6,
            "componentType" : 5126,
            "count" : 1045,
            "type" : "VEC2"
        },
        {
            "bufferView" : 7,
            "componentType" : 5123,
            "count" : 1500,
            "type" : "SCALAR"
        },
        {
            "bufferView" : 8,
            "componentType" : 5126,
            "count" : 523,
            "max" : [
                1.0565552711486816,
                0.9918428659439087,
                -1.1910473108291626
            ],
            "min" : [
                -1.0565556287765503,
                -1.1323734521865845,
                -3.3015003204345703
            ],
            "type" : "VEC3"
        },
        {
            "bufferView" : 9,
            "componentType" : 5126,
            "count" : 523,
            "type" : "VEC3"
        },
        {
            "bufferView" : 10,
            "componentType" : 5126,
            "count" : 523,
            "type" : "VEC2"
        },
        {
            "bufferView" : 11,
            "componentType" : 5123,
            "count" : 2700,
            "type" : "SCALAR"
        },
        {
            "bufferView" : 12,
            "componentType" : 5126,
            "count" : 1339,
            "max" : [
                1.0565552711486816,
                0.44840121269226074,
                -1.1910473108291626
            ],
            "min" : [
                -1.0565556287765503,
                -1.4187700748443604,
                -3.3015003204345703
            ],
            "type" : "VEC3"
        },
        {
            "bufferView" : 13,
            "componentType" : 5126,
            "count" : 1339,
            "type" : "VEC3"
        },
        {
            "bufferView" : 14,
            "componentType" : 5126,
            "count" : 1339,
            "type" : "VEC2"
        },
        {
            "bufferView" : 15,
            "componentType" : 5123,
            "count" : 3180,
            "type" : "SCALAR"
        },
        {
            "bufferView" : 16,
            "componentType" : 5126,
            "count" : 229,
            "max" : [
                0.9879871010780334,
                0.9918428659439087,
                -1.2595293521881104
            ],
            "min" : [
                -0.9879871010780334,
                -0.6729702949523926,
                -3.233018398284912
            ],
            "type" : "VEC3"
        },
        {
            "bufferView" : 17,
            "componentType" : 5126,
            "count" : 229,
            "type" : "VEC3"
        },
        {
            "bufferView" : 18,
            "componentType" : 5126,
            "count" : 229,
            "type" : "VEC2"
        },
        {
            "bufferView" : 19,
            "componentType" : 5123,
            "count" : 1020,
            "type" : "SCALAR"
        }
    ],
    "bufferViews" : [
        {
            "buffer" : 0,
            "byteLength" : 288,
            "byteOffset" : 0
        },
        {
            "buffer" : 0,
            "byteLength" : 288,
            "byteOffset" : 288
        },
        {
            "buffer" : 0,
            "byteLength" : 192,
            "byteOffset" : 576
        },
        {
            "buffer" : 0,
            "byteLength" : 72,
            "byteOffset" : 768
        },
        {
            "buffer" : 0,
            "byteLength" : 12540,
            "byteOffset" : 840
        },
        {
            "buffer" : 0,
            "byteLength" : 12540,
            "byteOffset" : 13380
        },
        {
            "buffer" : 0,
            "byteLength" : 8360,
            "byteOffset" : 25920
        },
        {
            "buffer" : 0,
            "byteLength" : 3000,
            "byteOffset" : 34280
        },
        {
            "buffer" : 0,
            "byteLength" : 6276,
            "byteOffset" : 37280
        },
        {
            "buffer" : 0,
            "byteLength" : 6276,
            "byteOffset" : 43556
        },
        {
            "buffer" : 0,
            "byteLength" : 4184,
            "byteOffset" : 49832
        },
        {
            "buffer" : 0,
            "byteLength" : 5400,
            "byteOffset" : 54016
        },
        {
            "buffer" : 0,
            "byteLength" : 16068,
            "byteOffset" : 59416
        },
        {
            "buffer" : 0,
            "byteLength" : 16068,
            "byteOffset" : 75484
        },
        {
            "buffer" : 0,
            "byteLength" : 10712,
            "byteOffset" : 91552
        },
        {
            "buffer" : 0,
            "byteLength" : 6360,
            "byteOffset" : 102264
        },
        {
            "buffer" : 0,
            "byteLength" : 2748,
            "byteOffset" : 108624
        },
        {
            "buffer" : 0,
            "byteLength" : 2748,
            "byteOffset" : 111372
        },
        {
            "buffer" : 0,
            "byteLength" : 1832,
            "byteOffset" : 114120
        },
        {
            "buffer" : 0,
            "byteLength" : 2040,
            "byteOffset" : 115952
        }
    ],
    "buffers" : [
        {
            "byteLength" : 117992,
            "uri" : "data:application/octet-stream;base64,"
        }
    ]
}
