{
    "asset" : {
        "generator" : "Khronos glTF Blender I/O v1.3.48",
        "version" : "2.0"
    },
    "scene" : 0,
    "scenes" : [
        {
            "name" : "Scene",
            "nodes" : [
                2,
                5,
                9,
                12,
                15
            ]
        }
    ],
    "nodes" : [
        {
            "mesh" : 0,
            "name" : "pCube22_lambert3_0"
        },
        {
            "children" : [
                0
            ],
            "name" : "pCube22",
            "scale" : [
                7.687174320220947,
                0.3325529396533966,
                7.687174320220947
            ],
            "translation" : [
                0.009977340698242188,
                0.020659908652305603,
                -0.0017414093017578125
            ]
        },
        {
            "children" : [
                1
            ],
            "name" : "group1",
            "scale" : [
                0.19141656160354614,
                0.19141656160354614,
                0.19141656160354614
            ],
            "translation" : [
                0,
                0.04917658865451813,
                0
            ]
        },
        {
            "mesh" : 1,
            "name" : "pSphere5_lambert4_0"
        },
        {
            "mesh" : 2,
            "name" : "pSphere5_lambert5_0"
        },
        {
            "children" : [
                3,
                4
            ],
            "name" : "pSphere5",
            "rotation" : [
                0,
                1,
                0,
                -6.123234262925839e-17
            ],
            "scale" : [
                0.15024420619010925,
                0.15024420619010925,
                0.15024420619010925
            ],
            "translation" : [
                0.10905981063842773,
                0.6129017472267151,
                -0.04369997978210449
            ]
        },
        {
            "mesh" : 3,
            "name" : "pCube8_lambert3_0"
        },
        {
            "mesh" : 4,
            "name" : "pCube8_lambert4_0"
        },
        {
            "mesh" : 5,
            "name" : "pCube8_lambert6_0"
        },
        {
            "children" : [
                6,
                7,
                8
            ],
            "name" : "pCube8",
            "rotation" : [
                0,
                1,
                0,
                -6.123234262925839e-17
            ],
            "scale" : [
                0.8378019332885742,
                0.2634549140930176,
                0.8378019332885742
            ],
            "translation" : [
                -0.04866588115692139,
                0.13595083355903625,
                -0.04369997978210449
            ]
        },
        {
            "mesh" : 6,
            "name" : "pSphere8_lambert3_0"
        },
        {
            "mesh" : 7,
            "name" : "pSphere8_lambert4_0"
        },
        {
            "children" : [
                10,
                11
            ],
            "name" : "pSphere8",
            "rotation" : [
                0,
                1,
                0,
                -6.123234262925839e-17
            ],
            "scale" : [
                0.15024420619010925,
                0.10560455918312073,
                0.15024420619010925
            ],
            "translation" : [
                -0.3367811441421509,
                0.6129017472267151,
                -0.04369997978210449
            ]
        },
        {
            "mesh" : 8,
            "name" : "pCube46_lambert3_0"
        },
        {
            "mesh" : 9,
            "name" : "pCube46_lambert4_0"
        },
        {
            "children" : [
                13,
                14
            ],
            "name" : "pCube46",
            "rotation" : [
                0,
                1,
                0,
                -6.123234262925839e-17
            ],
            "scale" : [
                0.326831191778183,
                0.504838764667511,
                0.326831191778183
            ],
            "translation" : [
                0.1898965835571289,
                0.27587050199508667,
                0.34833288192749023
            ]
        }
    ],
    "materials" : [
        {
            "doubleSided" : true,
            "emissiveFactor" : [
                0,
                0,
                0
            ],
            "name" : "lambert3.018",
            "pbrMetallicRoughness" : {
                "baseColorFactor" : [
                    0.08021900057792664,
                    0.46206900477409363,
                    0.5711219906806946,
                    1
                ],
                "metallicFactor" : 0,
                "roughnessFactor" : 0.6000000238418579
            }
        },
        {
            "doubleSided" : true,
            "emissiveFactor" : [
                0,
                0,
                0
            ],
            "name" : "lambert4.018",
            "pbrMetallicRoughness" : {
                "baseColorFactor" : [
                    0.00972133968025446,
                    0.14702899754047394,
                    0.29177701473236084,
                    1
                ],
                "metallicFactor" : 0,
                "roughnessFactor" : 0.6000000238418579
            }
        },
        {
            "doubleSided" : true,
            "emissiveFactor" : [
                0,
                0,
                0
            ],
            "name" : "lambert5.018",
            "pbrMetallicRoughness" : {
                "baseColorFactor" : [
                    0.2705000042915344,
                    0.4178810119628906,
                    0.5394709706306458,
                    1
                ],
                "metallicFactor" : 0,
                "roughnessFactor" : 0.6000000238418579
            }
        },
        {
            "doubleSided" : true,
            "emissiveFactor" : [
                0,
                0,
                0
            ],
            "name" : "lambert6.018",
            "pbrMetallicRoughness" : {
                "baseColorFactor" : [
                    0.75,
                    0.75,
                    0.75,
                    1
                ],
                "metallicFactor" : 0,
                "roughnessFactor" : 0.6000000238418579
            }
        }
    ],
    "meshes" : [
        {
            "name" : "pCube22_lambert3_0.018",
            "primitives" : [
                {
                    "attributes" : {
                        "POSITION" : 0,
                        "NORMAL" : 1,
                        "TEXCOORD_0" : 2
                    },
                    "indices" : 3,
                    "material" : 0
                }
            ]
        },
        {
            "name" : "pSphere5_lambert4_0.018",
            "primitives" : [
                {
                    "attributes" : {
                        "POSITION" : 4,
                        "NORMAL" : 5,
                        "TEXCOORD_0" : 6
                    },
                    "indices" : 7,
                    "material" : 1
                }
            ]
        },
        {
            "name" : "pSphere5_lambert5_0.018",
            "primitives" : [
                {
                    "attributes" : {
                        "POSITION" : 8,
                        "NORMAL" : 9,
                        "TEXCOORD_0" : 10
                    },
                    "indices" : 11,
                    "material" : 2
                }
            ]
        },
        {
            "name" : "pCube8_lambert3_0.018",
            "primitives" : [
                {
                    "attributes" : {
                        "POSITION" : 12,
                        "NORMAL" : 13,
                        "TEXCOORD_0" : 14
                    },
                    "indices" : 15,
                    "material" : 0
                }
            ]
        },
        {
            "name" : "pCube8_lambert4_0.018",
            "primitives" : [
                {
                    "attributes" : {
                        "POSITION" : 16,
                        "NORMAL" : 17,
                        "TEXCOORD_0" : 18
                    },
                    "indices" : 19,
                    "material" : 1
                }
            ]
        },
        {
            "name" : "pCube8_lambert6_0.018",
            "primitives" : [
                {
                    "attributes" : {
                        "POSITION" : 20,
                        "NORMAL" : 21,
                        "TEXCOORD_0" : 22
                    },
                    "indices" : 23,
                    "material" : 3
                }
            ]
        },
        {
            "name" : "pSphere8_lambert3_0.018",
            "primitives" : [
                {
                    "attributes" : {
                        "POSITION" : 24,
                        "NORMAL" : 25,
                        "TEXCOORD_0" : 26
                    },
                    "indices" : 27,
                    "material" : 0
                }
            ]
        },
        {
            "name" : "pSphere8_lambert4_0.018",
            "primitives" : [
                {
                    "attributes" : {
                        "POSITION" : 28,
                        "NORMAL" : 29,
                        "TEXCOORD_0" : 30
                    },
                    "indices" : 31,
                    "material" : 1
                }
            ]
        },
        {
            "name" : "pCube46_lambert3_0.018",
            "primitives" : [
                {
                    "attributes" : {
                        "POSITION" : 32,
                        "NORMAL" : 33,
                        "TEXCOORD_0" : 34
                    },
                    "indices" : 35,
                    "material" : 0
                }
            ]
        },
        {
            "name" : "pCube46_lambert4_0.018",
            "primitives" : [
                {
                    "attributes" : {
                        "POSITION" : 36,
                        "NORMAL" : 37,
                        "TEXCOORD_0" : 38
                    },
                    "indices" : 39,
                    "material" : 1
                }
            ]
        }
    ],
    "accessors" : [
        {
            "bufferView" : 0,
            "componentType" : 5126,
            "count" : 24,
            "max" : [
                0.5,
                0.5,
                0.5
            ],
            "min" : [
                -0.5,
                -0.5,
                -0.5
            ],
            "type" : "VEC3"
        },
        {
            "bufferView" : 1,
            "componentType" : 5126,
            "count" : 24,
            "type" : "VEC3"
        },
        {
            "bufferView" : 2,
            "componentType" : 5126,
            "count" : 24,
            "type" : "VEC2"
        },
        {
            "bufferView" : 3,
            "componentType" : 5123,
            "count" : 36,
            "type" : "SCALAR"
        },
        {
            "bufferView" : 4,
            "componentType" : 5126,
            "count" : 355,
            "max" : [
                1.0565552711486816,
                0.9918428659439087,
                1.055226445198059
            ],
            "min" : [
                -1.0565556287765503,
                -0.8336192965507507,
                -1.055226445198059
            ],
            "type" : "VEC3"
        },
        {
            "bufferView" : 5,
            "componentType" : 5126,
            "count" : 355,
            "type" : "VEC3"
        },
        {
            "bufferView" : 6,
            "componentType" : 5126,
            "count" : 355,
            "type" : "VEC2"
        },
        {
            "bufferView" : 7,
            "componentType" : 5123,
            "count" : 1620,
            "type" : "SCALAR"
        },
        {
            "bufferView" : 8,
            "componentType" : 5126,
            "count" : 1255,
            "max" : [
                1.0028554201126099,
                0.7991181015968323,
                1.001590371131897
            ],
            "min" : [
                -1.002853274345398,
                -2.79734468460083,
                -1.0015901327133179
            ],
            "type" : "VEC3"
        },
        {
            "bufferView" : 9,
            "componentType" : 5126,
            "count" : 1255,
            "type" : "VEC3"
        },
        {
            "bufferView" : 10,
            "componentType" : 5126,
            "count" : 1255,
            "type" : "VEC2"
        },
        {
            "bufferView" : 11,
            "componentType" : 5123,
            "count" : 2580,
            "type" : "SCALAR"
        },
        {
            "bufferView" : 12,
            "componentType" : 5126,
            "count" : 298,
            "max" : [
                0.5,
                0.5,
                0.5
            ],
            "min" : [
                -0.5,
                -0.5,
                -0.5
            ],
            "type" : "VEC3"
        },
        {
            "bufferView" : 13,
            "componentType" : 5126,
            "count" : 298,
            "type" : "VEC3"
        },
        {
            "bufferView" : 14,
            "componentType" : 5126,
            "count" : 298,
            "type" : "VEC2"
        },
        {
            "bufferView" : 15,
            "componentType" : 5123,
            "count" : 798,
            "type" : "SCALAR"
        },
        {
            "bufferView" : 16,
            "componentType" : 5126,
            "count" : 18,
            "max" : [
                0.41664254665374756,
                0.34058862924575806,
                0.5
            ],
            "min" : [
                -0.4202363193035126,
                0.25523990392684937,
                0.5
            ],
            "type" : "VEC3"
        },
        {
            "bufferView" : 17,
            "componentType" : 5126,
            "count" : 18,
            "type" : "VEC3"
        },
        {
            "bufferView" : 18,
            "componentType" : 5126,
            "count" : 18,
            "type" : "VEC2"
        },
        {
            "bufferView" : 19,
            "componentType" : 5123,
            "count" : 24,
            "type" : "SCALAR"
        },
        {
            "bufferView" : 20,
            "componentType" : 5126,
            "count" : 24,
            "max" : [
                0.4585220515727997,
                0.061266008764505386,
                0.5
            ],
            "min" : [
                -0.45439469814300537,
                -0.08615443855524063,
                0.5
            ],
            "type" : "VEC3"
        },
        {
            "bufferView" : 21,
            "componentType" : 5126,
            "count" : 24,
            "type" : "VEC3"
        },
        {
            "bufferView" : 22,
            "componentType" : 5126,
            "count" : 24,
            "type" : "VEC2"
        },
        {
            "bufferView" : 23,
            "componentType" : 5123,
            "count" : 30,
            "type" : "SCALAR"
        },
        {
            "bufferView" : 24,
            "componentType" : 5126,
            "count" : 1507,
            "max" : [
                1.0565552711486816,
                0.9918428659439087,
                1.055226445198059
            ],
            "min" : [
                -1.0565556287765503,
                -6.772220611572266,
                -1.055226445198059
            ],
            "type" : "VEC3"
        },
        {
            "bufferView" : 25,
            "componentType" : 5126,
            "count" : 1507,
            "type" : "VEC3"
        },
        {
            "bufferView" : 26,
            "componentType" : 5126,
            "count" : 1507,
            "type" : "VEC2"
        },
        {
            "bufferView" : 27,
            "componentType" : 5123,
            "count" : 3840,
            "type" : "SCALAR"
        },
        {
            "bufferView" : 28,
            "componentType" : 5126,
            "count" : 126,
            "max" : [
                0.9716484546661377,
                0.6984014511108398,
                0.9704232215881348
            ],
            "min" : [
                -0.9716466665267944,
                -6.772212982177734,
                -0.9704229831695557
            ],
            "type" : "VEC3"
        },
        {
            "bufferView" : 29,
            "componentType" : 5126,
            "count" : 126,
            "type" : "VEC3"
        },
        {
            "bufferView" : 30,
            "componentType" : 5126,
            "count" : 126,
            "type" : "VEC2"
        },
        {
            "bufferView" : 31,
            "componentType" : 5123,
            "count" : 360,
            "type" : "SCALAR"
        },
        {
            "bufferView" : 32,
            "componentType" : 5126,
            "count" : 219,
            "max" : [
                0.5,
                0.5,
                0.5
            ],
            "min" : [
                -0.5,
                -0.5,
                -0.5
            ],
            "type" : "VEC3"
        },
        {
            "bufferView" : 33,
            "componentType" : 5126,
            "count" : 219,
            "type" : "VEC3"
        },
        {
            "bufferView" : 34,
            "componentType" : 5126,
            "count" : 219,
            "type" : "VEC2"
        },
        {
            "bufferView" : 35,
            "componentType" : 5123,
            "count" : 540,
            "type" : "SCALAR"
        },
        {
            "bufferView" : 36,
            "componentType" : 5126,
            "count" : 18,
            "max" : [
                0.30444109439849854,
                0.24955600500106812,
                0.5
            ],
            "min" : [
                -0.29516610503196716,
                -0.05201524496078491,
                0.5
            ],
            "type" : "VEC3"
        },
        {
            "bufferView" : 37,
            "componentType" : 5126,
            "count" : 18,
            "type" : "VEC3"
        },
        {
            "bufferView" : 38,
            "componentType" : 5126,
            "count" : 18,
            "type" : "VEC2"
        },
        {
            "bufferView" : 39,
            "componentType" : 5123,
            "count" : 24,
            "type" : "SCALAR"
        }
    ],
    "bufferViews" : [
        {
            "buffer" : 0,
            "byteLength" : 288,
            "byteOffset" : 0
        },
        {
            "buffer" : 0,
            "byteLength" : 288,
            "byteOffset" : 288
        },
        {
            "buffer" : 0,
            "byteLength" : 192,
            "byteOffset" : 576
        },
        {
            "buffer" : 0,
            "byteLength" : 72,
            "byteOffset" : 768
        },
        {
            "buffer" : 0,
            "byteLength" : 4260,
            "byteOffset" : 840
        },
        {
            "buffer" : 0,
            "byteLength" : 4260,
            "byteOffset" : 5100
        },
        {
            "buffer" : 0,
            "byteLength" : 2840,
            "byteOffset" : 9360
        },
        {
            "buffer" : 0,
            "byteLength" : 3240,
            "byteOffset" : 12200
        },
        {
            "buffer" : 0,
            "byteLength" : 15060,
            "byteOffset" : 15440
        },
        {
            "buffer" : 0,
            "byteLength" : 15060,
            "byteOffset" : 30500
        },
        {
            "buffer" : 0,
            "byteLength" : 10040,
            "byteOffset" : 45560
        },
        {
            "buffer" : 0,
            "byteLength" : 5160,
            "byteOffset" : 55600
        },
        {
            "buffer" : 0,
            "byteLength" : 3576,
            "byteOffset" : 60760
        },
        {
            "buffer" : 0,
            "byteLength" : 3576,
            "byteOffset" : 64336
        },
        {
            "buffer" : 0,
            "byteLength" : 2384,
            "byteOffset" : 67912
        },
        {
            "buffer" : 0,
            "byteLength" : 1596,
            "byteOffset" : 70296
        },
        {
            "buffer" : 0,
            "byteLength" : 216,
            "byteOffset" : 71892
        },
        {
            "buffer" : 0,
            "byteLength" : 216,
            "byteOffset" : 72108
        },
        {
            "buffer" : 0,
            "byteLength" : 144,
            "byteOffset" : 72324
        },
        {
            "buffer" : 0,
            "byteLength" : 48,
            "byteOffset" : 72468
        },
        {
            "buffer" : 0,
            "byteLength" : 288,
            "byteOffset" : 72516
        },
        {
            "buffer" : 0,
            "byteLength" : 288,
            "byteOffset" : 72804
        },
        {
            "buffer" : 0,
            "byteLength" : 192,
            "byteOffset" : 73092
        },
        {
            "buffer" : 0,
            "byteLength" : 60,
            "byteOffset" : 73284
        },
        {
            "buffer" : 0,
            "byteLength" : 18084,
            "byteOffset" : 73344
        },
        {
            "buffer" : 0,
            "byteLength" : 18084,
            "byteOffset" : 91428
        },
        {
            "buffer" : 0,
            "byteLength" : 12056,
            "byteOffset" : 109512
        },
        {
            "buffer" : 0,
            "byteLength" : 7680,
            "byteOffset" : 121568
        },
        {
            "buffer" : 0,
            "byteLength" : 1512,
            "byteOffset" : 129248
        },
        {
            "buffer" : 0,
            "byteLength" : 1512,
            "byteOffset" : 130760
        },
        {
            "buffer" : 0,
            "byteLength" : 1008,
            "byteOffset" : 132272
        },
        {
            "buffer" : 0,
            "byteLength" : 720,
            "byteOffset" : 133280
        },
        {
            "buffer" : 0,
            "byteLength" : 2628,
            "byteOffset" : 134000
        },
        {
            "buffer" : 0,
            "byteLength" : 2628,
            "byteOffset" : 136628
        },
        {
            "buffer" : 0,
            "byteLength" : 1752,
            "byteOffset" : 139256
        },
        {
            "buffer" : 0,
            "byteLength" : 1080,
            "byteOffset" : 141008
        },
        {
            "buffer" : 0,
            "byteLength" : 216,
            "byteOffset" : 142088
        },
        {
            "buffer" : 0,
            "byteLength" : 216,
            "byteOffset" : 142304
        },
        {
            "buffer" : 0,
            "byteLength" : 144,
            "byteOffset" : 142520
        },
        {
            "buffer" : 0,
            "byteLength" : 48,
            "byteOffset" : 142664
        }
    ],
    "buffers" : [
        {
            "byteLength" : 142712,
            "uri" : "data:application/octet-stream;base64,"
        }
    ]
}
