{
    "asset" : {
        "generator" : "Khronos glTF Blender I/O v1.3.48",
        "version" : "2.0"
    },
    "scene" : 0,
    "scenes" : [
        {
            "name" : "Scene",
            "nodes" : [
                2,
                5,
                8,
                11
            ]
        }
    ],
    "nodes" : [
        {
            "mesh" : 0,
            "name" : "pCube17_lambert3_0"
        },
        {
            "children" : [
                0
            ],
            "name" : "pCube17",
            "scale" : [
                7.687174320220947,
                0.3325529396533966,
                7.687174320220947
            ],
            "translation" : [
                -0.009278535842895508,
                0.020659908652305603,
                0.04104429483413696
            ]
        },
        {
            "children" : [
                1
            ],
            "name" : "group1",
            "scale" : [
                0.19141656160354614,
                0.19141656160354614,
                0.19141656160354614
            ],
            "translation" : [
                0,
                0.04917658865451813,
                0
            ]
        },
        {
            "mesh" : 1,
            "name" : "pCube25_lambert3_0"
        },
        {
            "mesh" : 2,
            "name" : "pCube25_lambert6_0"
        },
        {
            "children" : [
                3,
                4
            ],
            "name" : "pCube25",
            "rotation" : [
                0,
                1,
                0,
                -6.123234262925839e-17
            ],
            "scale" : [
                0.326831191778183,
                0.7713308334350586,
                0.326831191778183
            ],
            "translation" : [
                0.45933523774147034,
                0.41719192266464233,
                -0.2986803650856018
            ]
        },
        {
            "mesh" : 3,
            "name" : "pCylinder11_lambert3_0"
        },
        {
            "mesh" : 4,
            "name" : "pCylinder11_lambert4_0"
        },
        {
            "children" : [
                6,
                7
            ],
            "name" : "pCylinder11",
            "scale" : [
                0.22728146612644196,
                0.025100240483880043,
                0.22728146612644196
            ],
            "translation" : [
                -0.15077754855155945,
                0.08317729085683823,
                0.09223146736621857
            ]
        },
        {
            "mesh" : 5,
            "name" : "pCylinder16_lambert3_0"
        },
        {
            "mesh" : 6,
            "name" : "pCylinder16_lambert4_0"
        },
        {
            "children" : [
                9,
                10
            ],
            "name" : "pCylinder16",
            "scale" : [
                0.22728146612644196,
                0.025100240483880043,
                0.22728146612644196
            ],
            "translation" : [
                0.16889292001724243,
                0.08317729085683823,
                0.09223146736621857
            ]
        }
    ],
    "materials" : [
        {
            "doubleSided" : true,
            "emissiveFactor" : [
                0,
                0,
                0
            ],
            "name" : "lambert3.004",
            "pbrMetallicRoughness" : {
                "baseColorFactor" : [
                    0.08021900057792664,
                    0.46206900477409363,
                    0.5711219906806946,
                    1
                ],
                "metallicFactor" : 0,
                "roughnessFactor" : 0.6000000238418579
            }
        },
        {
            "doubleSided" : true,
            "emissiveFactor" : [
                0,
                0,
                0
            ],
            "name" : "lambert6.004",
            "pbrMetallicRoughness" : {
                "baseColorFactor" : [
                    0.75,
                    0.75,
                    0.75,
                    1
                ],
                "metallicFactor" : 0,
                "roughnessFactor" : 0.6000000238418579
            }
        },
        {
            "doubleSided" : true,
            "emissiveFactor" : [
                0,
                0,
                0
            ],
            "name" : "lambert4.004",
            "pbrMetallicRoughness" : {
                "baseColorFactor" : [
                    0.00972133968025446,
                    0.14702899754047394,
                    0.29177701473236084,
                    1
                ],
                "metallicFactor" : 0,
                "roughnessFactor" : 0.6000000238418579
            }
        }
    ],
    "meshes" : [
        {
            "name" : "pCube17_lambert3_0.004",
            "primitives" : [
                {
                    "attributes" : {
                        "POSITION" : 0,
                        "NORMAL" : 1,
                        "TEXCOORD_0" : 2
                    },
                    "indices" : 3,
                    "material" : 0
                }
            ]
        },
        {
            "name" : "pCube25_lambert3_0.004",
            "primitives" : [
                {
                    "attributes" : {
                        "POSITION" : 4,
                        "NORMAL" : 5,
                        "TEXCOORD_0" : 6
                    },
                    "indices" : 7,
                    "material" : 0
                }
            ]
        },
        {
            "name" : "pCube25_lambert6_0.004",
            "primitives" : [
                {
                    "attributes" : {
                        "POSITION" : 8,
                        "NORMAL" : 9,
                        "TEXCOORD_0" : 10
                    },
                    "indices" : 11,
                    "material" : 1
                }
            ]
        },
        {
            "name" : "pCylinder11_lambert3_0.004",
            "primitives" : [
                {
                    "attributes" : {
                        "POSITION" : 12,
                        "NORMAL" : 13,
                        "TEXCOORD_0" : 14
                    },
                    "indices" : 15,
                    "material" : 0
                }
            ]
        },
        {
            "name" : "pCylinder11_lambert4_0.004",
            "primitives" : [
                {
                    "attributes" : {
                        "POSITION" : 16,
                        "NORMAL" : 17,
                        "TEXCOORD_0" : 18
                    },
                    "indices" : 19,
                    "material" : 2
                }
            ]
        },
        {
            "name" : "pCylinder16_lambert3_0.004",
            "primitives" : [
                {
                    "attributes" : {
                        "POSITION" : 20,
                        "NORMAL" : 21,
                        "TEXCOORD_0" : 22
                    },
                    "indices" : 15,
                    "material" : 0
                }
            ]
        },
        {
            "name" : "pCylinder16_lambert4_0.004",
            "primitives" : [
                {
                    "attributes" : {
                        "POSITION" : 23,
                        "NORMAL" : 24,
                        "TEXCOORD_0" : 25
                    },
                    "indices" : 19,
                    "material" : 2
                }
            ]
        }
    ],
    "accessors" : [
        {
            "bufferView" : 0,
            "componentType" : 5126,
            "count" : 24,
            "max" : [
                0.5,
                0.5,
                0.5
            ],
            "min" : [
                -0.5,
                -0.5,
                -0.5
            ],
            "type" : "VEC3"
        },
        {
            "bufferView" : 1,
            "componentType" : 5126,
            "count" : 24,
            "type" : "VEC3"
        },
        {
            "bufferView" : 2,
            "componentType" : 5126,
            "count" : 24,
            "type" : "VEC2"
        },
        {
            "bufferView" : 3,
            "componentType" : 5123,
            "count" : 36,
            "type" : "SCALAR"
        },
        {
            "bufferView" : 4,
            "componentType" : 5126,
            "count" : 220,
            "max" : [
                0.5,
                0.5,
                0.5
            ],
            "min" : [
                -0.5,
                -0.5,
                -0.5
            ],
            "type" : "VEC3"
        },
        {
            "bufferView" : 5,
            "componentType" : 5126,
            "count" : 220,
            "type" : "VEC3"
        },
        {
            "bufferView" : 6,
            "componentType" : 5126,
            "count" : 220,
            "type" : "VEC2"
        },
        {
            "bufferView" : 7,
            "componentType" : 5123,
            "count" : 528,
            "type" : "SCALAR"
        },
        {
            "bufferView" : 8,
            "componentType" : 5126,
            "count" : 26,
            "max" : [
                0.3981294631958008,
                0.2495560199022293,
                0.5
            ],
            "min" : [
                -0.38885498046875,
                -0.05201524496078491,
                0.5
            ],
            "type" : "VEC3"
        },
        {
            "bufferView" : 9,
            "componentType" : 5126,
            "count" : 26,
            "type" : "VEC3"
        },
        {
            "bufferView" : 10,
            "componentType" : 5126,
            "count" : 26,
            "type" : "VEC2"
        },
        {
            "bufferView" : 11,
            "componentType" : 5123,
            "count" : 36,
            "type" : "SCALAR"
        },
        {
            "bufferView" : 12,
            "componentType" : 5126,
            "count" : 565,
            "max" : [
                0.9877642393112183,
                10.055486679077148,
                0.9877643585205078
            ],
            "min" : [
                -0.9877643585205078,
                -1,
                -0.9877644777297974
            ],
            "type" : "VEC3"
        },
        {
            "bufferView" : 13,
            "componentType" : 5126,
            "count" : 565,
            "type" : "VEC3"
        },
        {
            "bufferView" : 14,
            "componentType" : 5126,
            "count" : 565,
            "type" : "VEC2"
        },
        {
            "bufferView" : 15,
            "componentType" : 5123,
            "count" : 2640,
            "type" : "SCALAR"
        },
        {
            "bufferView" : 16,
            "componentType" : 5126,
            "count" : 360,
            "max" : [
                0.5587053894996643,
                11.90207290649414,
                0.5587067008018494
            ],
            "min" : [
                -0.5587056279182434,
                7.2967848777771,
                -0.5587045550346375
            ],
            "type" : "VEC3"
        },
        {
            "bufferView" : 17,
            "componentType" : 5126,
            "count" : 360,
            "type" : "VEC3"
        },
        {
            "bufferView" : 18,
            "componentType" : 5126,
            "count" : 360,
            "type" : "VEC2"
        },
        {
            "bufferView" : 19,
            "componentType" : 5123,
            "count" : 1920,
            "type" : "SCALAR"
        },
        {
            "bufferView" : 20,
            "componentType" : 5126,
            "count" : 565,
            "max" : [
                0.9877642393112183,
                10.055486679077148,
                0.9877643585205078
            ],
            "min" : [
                -0.9877643585205078,
                -1,
                -0.9877644777297974
            ],
            "type" : "VEC3"
        },
        {
            "bufferView" : 21,
            "componentType" : 5126,
            "count" : 565,
            "type" : "VEC3"
        },
        {
            "bufferView" : 22,
            "componentType" : 5126,
            "count" : 565,
            "type" : "VEC2"
        },
        {
            "bufferView" : 23,
            "componentType" : 5126,
            "count" : 360,
            "max" : [
                0.5587053894996643,
                11.90207290649414,
                0.5587067008018494
            ],
            "min" : [
                -0.5587056279182434,
                7.2967848777771,
                -0.5587045550346375
            ],
            "type" : "VEC3"
        },
        {
            "bufferView" : 24,
            "componentType" : 5126,
            "count" : 360,
            "type" : "VEC3"
        },
        {
            "bufferView" : 25,
            "componentType" : 5126,
            "count" : 360,
            "type" : "VEC2"
        }
    ],
    "bufferViews" : [
        {
            "buffer" : 0,
            "byteLength" : 288,
            "byteOffset" : 0
        },
        {
            "buffer" : 0,
            "byteLength" : 288,
            "byteOffset" : 288
        },
        {
            "buffer" : 0,
            "byteLength" : 192,
            "byteOffset" : 576
        },
        {
            "buffer" : 0,
            "byteLength" : 72,
            "byteOffset" : 768
        },
        {
            "buffer" : 0,
            "byteLength" : 2640,
            "byteOffset" : 840
        },
        {
            "buffer" : 0,
            "byteLength" : 2640,
            "byteOffset" : 3480
        },
        {
            "buffer" : 0,
            "byteLength" : 1760,
            "byteOffset" : 6120
        },
        {
            "buffer" : 0,
            "byteLength" : 1056,
            "byteOffset" : 7880
        },
        {
            "buffer" : 0,
            "byteLength" : 312,
            "byteOffset" : 8936
        },
        {
            "buffer" : 0,
            "byteLength" : 312,
            "byteOffset" : 9248
        },
        {
            "buffer" : 0,
            "byteLength" : 208,
            "byteOffset" : 9560
        },
        {
            "buffer" : 0,
            "byteLength" : 72,
            "byteOffset" : 9768
        },
        {
            "buffer" : 0,
            "byteLength" : 6780,
            "byteOffset" : 9840
        },
        {
            "buffer" : 0,
            "byteLength" : 6780,
            "byteOffset" : 16620
        },
        {
            "buffer" : 0,
            "byteLength" : 4520,
            "byteOffset" : 23400
        },
        {
            "buffer" : 0,
            "byteLength" : 5280,
            "byteOffset" : 27920
        },
        {
            "buffer" : 0,
            "byteLength" : 4320,
            "byteOffset" : 33200
        },
        {
            "buffer" : 0,
            "byteLength" : 4320,
            "byteOffset" : 37520
        },
        {
            "buffer" : 0,
            "byteLength" : 2880,
            "byteOffset" : 41840
        },
        {
            "buffer" : 0,
            "byteLength" : 3840,
            "byteOffset" : 44720
        },
        {
            "buffer" : 0,
            "byteLength" : 6780,
            "byteOffset" : 48560
        },
        {
            "buffer" : 0,
            "byteLength" : 6780,
            "byteOffset" : 55340
        },
        {
            "buffer" : 0,
            "byteLength" : 4520,
            "byteOffset" : 62120
        },
        {
            "buffer" : 0,
            "byteLength" : 4320,
            "byteOffset" : 66640
        },
        {
            "buffer" : 0,
            "byteLength" : 4320,
            "byteOffset" : 70960
        },
        {
            "buffer" : 0,
            "byteLength" : 2880,
            "byteOffset" : 75280
        }
    ],
    "buffers" : [
        {
            "byteLength" : 78160,
            "uri" : "data:application/octet-stream;base64,"
        }
    ]
}
