{
    "asset" : {
        "generator" : "Khronos glTF Blender I/O v1.3.48",
        "version" : "2.0"
    },
    "scene" : 0,
    "scenes" : [
        {
            "name" : "Scene",
            "nodes" : [
                2,
                7,
                11,
                14
            ]
        }
    ],
    "nodes" : [
        {
            "mesh" : 0,
            "name" : "pCube13_lambert3_0"
        },
        {
            "children" : [
                0
            ],
            "name" : "pCube13",
            "scale" : [
                7.687174320220947,
                0.3325529396533966,
                7.687174320220947
            ],
            "translation" : [
                -0.026704788208007812,
                0.020659908652305603,
                -0.022753238677978516
            ]
        },
        {
            "children" : [
                1
            ],
            "name" : "group1",
            "scale" : [
                0.19141656160354614,
                0.19141656160354614,
                0.19141656160354614
            ],
            "translation" : [
                0,
                0.04917658865451813,
                0
            ]
        },
        {
            "mesh" : 1,
            "name" : "pCube29_lambert3_0"
        },
        {
            "mesh" : 2,
            "name" : "pCube29_lambert4_0"
        },
        {
            "mesh" : 3,
            "name" : "pCube29_lambert5_0"
        },
        {
            "mesh" : 4,
            "name" : "pCube29_lambert6_0"
        },
        {
            "children" : [
                3,
                4,
                5,
                6
            ],
            "name" : "pCube29",
            "rotation" : [
                0,
                1,
                0,
                -6.123234262925839e-17
            ],
            "scale" : [
                0.1906280517578125,
                0.1906280517578125,
                0.1906280517578125
            ],
            "translation" : [
                -0.3721179962158203,
                0.007588246371597052,
                0.01079624891281128
            ]
        },
        {
            "mesh" : 5,
            "name" : "pCube34_lambert3_0"
        },
        {
            "mesh" : 6,
            "name" : "pCube34_lambert4_0"
        },
        {
            "mesh" : 7,
            "name" : "pCube34_lambert6_0"
        },
        {
            "children" : [
                8,
                9,
                10
            ],
            "name" : "pCube34",
            "rotation" : [
                0,
                1,
                0,
                -6.123234262925839e-17
            ],
            "scale" : [
                0.21205700933933258,
                0.6920577883720398,
                0.21205700933933258
            ],
            "translation" : [
                0.04103374481201172,
                0.32602638006210327,
                -0.1250799298286438
            ]
        },
        {
            "mesh" : 8,
            "name" : "pCube40_lambert3_0"
        },
        {
            "mesh" : 9,
            "name" : "pCube40_lambert4_0"
        },
        {
            "children" : [
                12,
                13
            ],
            "name" : "pCube40",
            "rotation" : [
                0,
                1,
                0,
                -6.123234262925839e-17
            ],
            "scale" : [
                0.326831191778183,
                0.504838764667511,
                0.326831191778183
            ],
            "translation" : [
                -0.5078046321868896,
                0.30281493067741394,
                0.3727886974811554
            ]
        }
    ],
    "materials" : [
        {
            "doubleSided" : true,
            "emissiveFactor" : [
                0,
                0,
                0
            ],
            "name" : "lambert3.011",
            "pbrMetallicRoughness" : {
                "baseColorFactor" : [
                    0.08021900057792664,
                    0.46206900477409363,
                    0.5711219906806946,
                    1
                ],
                "metallicFactor" : 0,
                "roughnessFactor" : 0.6000000238418579
            }
        },
        {
            "doubleSided" : true,
            "emissiveFactor" : [
                0,
                0,
                0
            ],
            "name" : "lambert4.011",
            "pbrMetallicRoughness" : {
                "baseColorFactor" : [
                    0.00972133968025446,
                    0.14702899754047394,
                    0.29177701473236084,
                    1
                ],
                "metallicFactor" : 0,
                "roughnessFactor" : 0.6000000238418579
            }
        },
        {
            "doubleSided" : true,
            "emissiveFactor" : [
                0,
                0,
                0
            ],
            "name" : "lambert5.011",
            "pbrMetallicRoughness" : {
                "baseColorFactor" : [
                    0.2705000042915344,
                    0.4178810119628906,
                    0.5394709706306458,
                    1
                ],
                "metallicFactor" : 0,
                "roughnessFactor" : 0.6000000238418579
            }
        },
        {
            "doubleSided" : true,
            "emissiveFactor" : [
                0,
                0,
                0
            ],
            "name" : "lambert6.011",
            "pbrMetallicRoughness" : {
                "baseColorFactor" : [
                    0.75,
                    0.75,
                    0.75,
                    1
                ],
                "metallicFactor" : 0,
                "roughnessFactor" : 0.6000000238418579
            }
        }
    ],
    "meshes" : [
        {
            "name" : "pCube13_lambert3_0.011",
            "primitives" : [
                {
                    "attributes" : {
                        "POSITION" : 0,
                        "NORMAL" : 1,
                        "TEXCOORD_0" : 2
                    },
                    "indices" : 3,
                    "material" : 0
                }
            ]
        },
        {
            "name" : "pCube29_lambert3_0.011",
            "primitives" : [
                {
                    "attributes" : {
                        "POSITION" : 4,
                        "NORMAL" : 5,
                        "TEXCOORD_0" : 6
                    },
                    "indices" : 7,
                    "material" : 0
                }
            ]
        },
        {
            "name" : "pCube29_lambert4_0.011",
            "primitives" : [
                {
                    "attributes" : {
                        "POSITION" : 8,
                        "NORMAL" : 9,
                        "TEXCOORD_0" : 10
                    },
                    "indices" : 11,
                    "material" : 1
                }
            ]
        },
        {
            "name" : "pCube29_lambert5_0.011",
            "primitives" : [
                {
                    "attributes" : {
                        "POSITION" : 12,
                        "NORMAL" : 13,
                        "TEXCOORD_0" : 14
                    },
                    "indices" : 15,
                    "material" : 2
                }
            ]
        },
        {
            "name" : "pCube29_lambert6_0.011",
            "primitives" : [
                {
                    "attributes" : {
                        "POSITION" : 16,
                        "NORMAL" : 17,
                        "TEXCOORD_0" : 18
                    },
                    "indices" : 19,
                    "material" : 3
                }
            ]
        },
        {
            "name" : "pCube34_lambert3_0.011",
            "primitives" : [
                {
                    "attributes" : {
                        "POSITION" : 20,
                        "NORMAL" : 21,
                        "TEXCOORD_0" : 22
                    },
                    "indices" : 23,
                    "material" : 0
                }
            ]
        },
        {
            "name" : "pCube34_lambert4_0.011",
            "primitives" : [
                {
                    "attributes" : {
                        "POSITION" : 24,
                        "NORMAL" : 25,
                        "TEXCOORD_0" : 26
                    },
                    "indices" : 27,
                    "material" : 1
                }
            ]
        },
        {
            "name" : "pCube34_lambert6_0.011",
            "primitives" : [
                {
                    "attributes" : {
                        "POSITION" : 28,
                        "NORMAL" : 29,
                        "TEXCOORD_0" : 30
                    },
                    "indices" : 31,
                    "material" : 3
                }
            ]
        },
        {
            "name" : "pCube40_lambert3_0.011",
            "primitives" : [
                {
                    "attributes" : {
                        "POSITION" : 32,
                        "NORMAL" : 33,
                        "TEXCOORD_0" : 34
                    },
                    "indices" : 35,
                    "material" : 0
                }
            ]
        },
        {
            "name" : "pCube40_lambert4_0.011",
            "primitives" : [
                {
                    "attributes" : {
                        "POSITION" : 36,
                        "NORMAL" : 37,
                        "TEXCOORD_0" : 38
                    },
                    "indices" : 39,
                    "material" : 1
                }
            ]
        }
    ],
    "accessors" : [
        {
            "bufferView" : 0,
            "componentType" : 5126,
            "count" : 24,
            "max" : [
                0.5,
                0.5,
                0.5
            ],
            "min" : [
                -0.5,
                -0.5,
                -0.5
            ],
            "type" : "VEC3"
        },
        {
            "bufferView" : 1,
            "componentType" : 5126,
            "count" : 24,
            "type" : "VEC3"
        },
        {
            "bufferView" : 2,
            "componentType" : 5126,
            "count" : 24,
            "type" : "VEC2"
        },
        {
            "bufferView" : 3,
            "componentType" : 5123,
            "count" : 36,
            "type" : "SCALAR"
        },
        {
            "bufferView" : 4,
            "componentType" : 5126,
            "count" : 378,
            "max" : [
                1.0105044841766357,
                1.565321683883667,
                0.5
            ],
            "min" : [
                -0.5,
                -0.5,
                -0.5
            ],
            "type" : "VEC3"
        },
        {
            "bufferView" : 5,
            "componentType" : 5126,
            "count" : 378,
            "type" : "VEC3"
        },
        {
            "bufferView" : 6,
            "componentType" : 5126,
            "count" : 378,
            "type" : "VEC2"
        },
        {
            "bufferView" : 7,
            "componentType" : 5123,
            "count" : 972,
            "type" : "SCALAR"
        },
        {
            "bufferView" : 8,
            "componentType" : 5126,
            "count" : 12,
            "max" : [
                0.7922298908233643,
                0.06808680295944214,
                0.5
            ],
            "min" : [
                -0.2164652794599533,
                -0.5,
                0.5
            ],
            "type" : "VEC3"
        },
        {
            "bufferView" : 9,
            "componentType" : 5126,
            "count" : 12,
            "type" : "VEC3"
        },
        {
            "bufferView" : 10,
            "componentType" : 5126,
            "count" : 12,
            "type" : "VEC2"
        },
        {
            "bufferView" : 11,
            "componentType" : 5123,
            "count" : 18,
            "type" : "SCALAR"
        },
        {
            "bufferView" : 12,
            "componentType" : 5126,
            "count" : 18,
            "max" : [
                0.8637124300003052,
                1.565321683883667,
                0.5
            ],
            "min" : [
                -0.3596149682998657,
                1.0157904624938965,
                0.5
            ],
            "type" : "VEC3"
        },
        {
            "bufferView" : 13,
            "componentType" : 5126,
            "count" : 18,
            "type" : "VEC3"
        },
        {
            "bufferView" : 14,
            "componentType" : 5126,
            "count" : 18,
            "type" : "VEC2"
        },
        {
            "bufferView" : 15,
            "componentType" : 5123,
            "count" : 24,
            "type" : "SCALAR"
        },
        {
            "bufferView" : 16,
            "componentType" : 5126,
            "count" : 38,
            "max" : [
                0.7922298908233643,
                1.0157904624938965,
                0.5
            ],
            "min" : [
                -0.21646550297737122,
                0.17133894562721252,
                0.5
            ],
            "type" : "VEC3"
        },
        {
            "bufferView" : 17,
            "componentType" : 5126,
            "count" : 38,
            "type" : "VEC3"
        },
        {
            "bufferView" : 18,
            "componentType" : 5126,
            "count" : 38,
            "type" : "VEC2"
        },
        {
            "bufferView" : 19,
            "componentType" : 5123,
            "count" : 54,
            "type" : "SCALAR"
        },
        {
            "bufferView" : 20,
            "componentType" : 5126,
            "count" : 42,
            "max" : [
                0.3329535722732544,
                0.3256869912147522,
                0.5
            ],
            "min" : [
                -0.3394380211830139,
                -0.2680070996284485,
                0.5
            ],
            "type" : "VEC3"
        },
        {
            "bufferView" : 21,
            "componentType" : 5126,
            "count" : 42,
            "type" : "VEC3"
        },
        {
            "bufferView" : 22,
            "componentType" : 5126,
            "count" : 42,
            "type" : "VEC2"
        },
        {
            "bufferView" : 23,
            "componentType" : 5123,
            "count" : 60,
            "type" : "SCALAR"
        },
        {
            "bufferView" : 24,
            "componentType" : 5126,
            "count" : 375,
            "max" : [
                0.5,
                0.5,
                0.5
            ],
            "min" : [
                -0.5,
                -0.5,
                -0.5
            ],
            "type" : "VEC3"
        },
        {
            "bufferView" : 25,
            "componentType" : 5126,
            "count" : 375,
            "type" : "VEC3"
        },
        {
            "bufferView" : 26,
            "componentType" : 5126,
            "count" : 375,
            "type" : "VEC2"
        },
        {
            "bufferView" : 27,
            "componentType" : 5123,
            "count" : 972,
            "type" : "SCALAR"
        },
        {
            "bufferView" : 28,
            "componentType" : 5126,
            "count" : 8,
            "max" : [
                0.3329535722732544,
                0.3256869912147522,
                0.5
            ],
            "min" : [
                -0.09171442687511444,
                -0.11619473248720169,
                0.5
            ],
            "type" : "VEC3"
        },
        {
            "bufferView" : 29,
            "componentType" : 5126,
            "count" : 8,
            "type" : "VEC3"
        },
        {
            "bufferView" : 30,
            "componentType" : 5126,
            "count" : 8,
            "type" : "VEC2"
        },
        {
            "bufferView" : 31,
            "componentType" : 5123,
            "count" : 12,
            "type" : "SCALAR"
        },
        {
            "bufferView" : 32,
            "componentType" : 5126,
            "count" : 219,
            "max" : [
                0.5,
                0.5,
                0.5
            ],
            "min" : [
                -0.5,
                -0.5,
                -0.5
            ],
            "type" : "VEC3"
        },
        {
            "bufferView" : 33,
            "componentType" : 5126,
            "count" : 219,
            "type" : "VEC3"
        },
        {
            "bufferView" : 34,
            "componentType" : 5126,
            "count" : 219,
            "type" : "VEC2"
        },
        {
            "bufferView" : 35,
            "componentType" : 5123,
            "count" : 540,
            "type" : "SCALAR"
        },
        {
            "bufferView" : 36,
            "componentType" : 5126,
            "count" : 18,
            "max" : [
                0.30444109439849854,
                0.24955600500106812,
                0.5
            ],
            "min" : [
                -0.29516610503196716,
                -0.05201524496078491,
                0.5
            ],
            "type" : "VEC3"
        },
        {
            "bufferView" : 37,
            "componentType" : 5126,
            "count" : 18,
            "type" : "VEC3"
        },
        {
            "bufferView" : 38,
            "componentType" : 5126,
            "count" : 18,
            "type" : "VEC2"
        },
        {
            "bufferView" : 39,
            "componentType" : 5123,
            "count" : 24,
            "type" : "SCALAR"
        }
    ],
    "bufferViews" : [
        {
            "buffer" : 0,
            "byteLength" : 288,
            "byteOffset" : 0
        },
        {
            "buffer" : 0,
            "byteLength" : 288,
            "byteOffset" : 288
        },
        {
            "buffer" : 0,
            "byteLength" : 192,
            "byteOffset" : 576
        },
        {
            "buffer" : 0,
            "byteLength" : 72,
            "byteOffset" : 768
        },
        {
            "buffer" : 0,
            "byteLength" : 4536,
            "byteOffset" : 840
        },
        {
            "buffer" : 0,
            "byteLength" : 4536,
            "byteOffset" : 5376
        },
        {
            "buffer" : 0,
            "byteLength" : 3024,
            "byteOffset" : 9912
        },
        {
            "buffer" : 0,
            "byteLength" : 1944,
            "byteOffset" : 12936
        },
        {
            "buffer" : 0,
            "byteLength" : 144,
            "byteOffset" : 14880
        },
        {
            "buffer" : 0,
            "byteLength" : 144,
            "byteOffset" : 15024
        },
        {
            "buffer" : 0,
            "byteLength" : 96,
            "byteOffset" : 15168
        },
        {
            "buffer" : 0,
            "byteLength" : 36,
            "byteOffset" : 15264
        },
        {
            "buffer" : 0,
            "byteLength" : 216,
            "byteOffset" : 15300
        },
        {
            "buffer" : 0,
            "byteLength" : 216,
            "byteOffset" : 15516
        },
        {
            "buffer" : 0,
            "byteLength" : 144,
            "byteOffset" : 15732
        },
        {
            "buffer" : 0,
            "byteLength" : 48,
            "byteOffset" : 15876
        },
        {
            "buffer" : 0,
            "byteLength" : 456,
            "byteOffset" : 15924
        },
        {
            "buffer" : 0,
            "byteLength" : 456,
            "byteOffset" : 16380
        },
        {
            "buffer" : 0,
            "byteLength" : 304,
            "byteOffset" : 16836
        },
        {
            "buffer" : 0,
            "byteLength" : 108,
            "byteOffset" : 17140
        },
        {
            "buffer" : 0,
            "byteLength" : 504,
            "byteOffset" : 17248
        },
        {
            "buffer" : 0,
            "byteLength" : 504,
            "byteOffset" : 17752
        },
        {
            "buffer" : 0,
            "byteLength" : 336,
            "byteOffset" : 18256
        },
        {
            "buffer" : 0,
            "byteLength" : 120,
            "byteOffset" : 18592
        },
        {
            "buffer" : 0,
            "byteLength" : 4500,
            "byteOffset" : 18712
        },
        {
            "buffer" : 0,
            "byteLength" : 4500,
            "byteOffset" : 23212
        },
        {
            "buffer" : 0,
            "byteLength" : 3000,
            "byteOffset" : 27712
        },
        {
            "buffer" : 0,
            "byteLength" : 1944,
            "byteOffset" : 30712
        },
        {
            "buffer" : 0,
            "byteLength" : 96,
            "byteOffset" : 32656
        },
        {
            "buffer" : 0,
            "byteLength" : 96,
            "byteOffset" : 32752
        },
        {
            "buffer" : 0,
            "byteLength" : 64,
            "byteOffset" : 32848
        },
        {
            "buffer" : 0,
            "byteLength" : 24,
            "byteOffset" : 32912
        },
        {
            "buffer" : 0,
            "byteLength" : 2628,
            "byteOffset" : 32936
        },
        {
            "buffer" : 0,
            "byteLength" : 2628,
            "byteOffset" : 35564
        },
        {
            "buffer" : 0,
            "byteLength" : 1752,
            "byteOffset" : 38192
        },
        {
            "buffer" : 0,
            "byteLength" : 1080,
            "byteOffset" : 39944
        },
        {
            "buffer" : 0,
            "byteLength" : 216,
            "byteOffset" : 41024
        },
        {
            "buffer" : 0,
            "byteLength" : 216,
            "byteOffset" : 41240
        },
        {
            "buffer" : 0,
            "byteLength" : 144,
            "byteOffset" : 41456
        },
        {
            "buffer" : 0,
            "byteLength" : 48,
            "byteOffset" : 41600
        }
    ],
    "buffers" : [
        {
            "byteLength" : 41648,
            "uri" : "data:application/octet-stream;base64,"
        }
    ]
}
