{
    "asset" : {
        "generator" : "Khronos glTF Blender I/O v1.3.48",
        "version" : "2.0"
    },
    "scene" : 0,
    "scenes" : [
        {
            "name" : "Scene",
            "nodes" : [
                1
            ]
        }
    ],
    "nodes" : [
        {
            "mesh" : 0,
            "name" : "pPlane1_BS_BG_Floor_01_0"
        },
        {
            "children" : [
                0
            ],
            "name" : "pPlane1",
            "scale" : [
                14.441309928894043,
                14.441309928894043,
                14.441309928894043
            ],
            "translation" : [
                -0.017574310302734375,
                0.03745000436902046,
                0
            ]
        }
    ],
    "materials" : [
        {
            "doubleSided" : true,
            "emissiveFactor" : [
                0.40196821093559265,
                0.40196821093559265,
                0.40196821093559265
            ],
            "name" : "BS_BG_Floor_01.005",
            "pbrMetallicRoughness" : {
                "baseColorTexture" : {
                    "index" : 0,
                    "texCoord" : 0
                },
                "metallicFactor" : 0.10638298094272614,
                "roughnessFactor" : 0.05542054772377014
            }
        }
    ],
    "meshes" : [
        {
            "name" : "pPlane1_BS_BG_Floor_01_0.005",
            "primitives" : [
                {
                    "attributes" : {
                        "POSITION" : 0,
                        "NORMAL" : 1,
                        "TEXCOORD_0" : 2
                    },
                    "indices" : 3,
                    "material" : 0
                }
            ]
        }
    ],
    "textures" : [
        {
            "source" : 0
        }
    ],
    "images" : [
        {
            "bufferView" : 4,
            "mimeType" : "image/jpeg",
            "name" : "BS_BG_Floor_01_baseColor"
        }
    ],
    "accessors" : [
        {
            "bufferView" : 0,
            "componentType" : 5126,
            "count" : 360,
            "max" : [
                0.5,
                1.1102230246251565e-16,
                0.5
            ],
            "min" : [
                -0.5,
                -1.1102230246251565e-16,
                -0.5
            ],
            "type" : "VEC3"
        },
        {
            "bufferView" : 1,
            "componentType" : 5126,
            "count" : 360,
            "type" : "VEC3"
        },
        {
            "bufferView" : 2,
            "componentType" : 5126,
            "count" : 360,
            "type" : "VEC2"
        },
        {
            "bufferView" : 3,
            "componentType" : 5123,
            "count" : 600,
            "type" : "SCALAR"
        }
    ],
    "bufferViews" : [
        {
            "buffer" : 0,
            "byteLength" : 4320,
            "byteOffset" : 0
        },
        {
            "buffer" : 0,
            "byteLength" : 4320,
            "byteOffset" : 4320
        },
        {
            "buffer" : 0,
            "byteLength" : 2880,
            "byteOffset" : 8640
        },
        {
            "buffer" : 0,
            "byteLength" : 1200,
            "byteOffset" : 11520
        },
        {
            "buffer" : 0,
            "byteLength" : 18616,
            "byteOffset" : 12720
        }
    ],
    "buffers" : [
        {
            "byteLength" : 31336,
            "uri" : "data:application/octet-stream;base64,"
        }
    ]
}
