{
    "asset" : {
        "generator" : "Khronos glTF Blender I/O v1.3.48",
        "version" : "2.0"
    },
    "scene" : 0,
    "scenes" : [
        {
            "name" : "Scene",
            "nodes" : [
                2,
                6,
                9,
                12
            ]
        }
    ],
    "nodes" : [
        {
            "mesh" : 0,
            "name" : "pCube9_lambert3_0"
        },
        {
            "children" : [
                0
            ],
            "name" : "pCube9",
            "scale" : [
                7.687174320220947,
                0.3325529396533966,
                7.687174320220947
            ],
            "translation" : [
                -0.07918167114257812,
                0.020659908652305603,
                0.04830217361450195
            ]
        },
        {
            "children" : [
                1
            ],
            "name" : "group1",
            "scale" : [
                0.19141656160354614,
                0.19141656160354614,
                0.19141656160354614
            ],
            "translation" : [
                0,
                0.04917658865451813,
                0
            ]
        },
        {
            "mesh" : 1,
            "name" : "pCube32_lambert3_0"
        },
        {
            "mesh" : 2,
            "name" : "pCube32_lambert4_0"
        },
        {
            "mesh" : 3,
            "name" : "pCube32_lambert6_0"
        },
        {
            "children" : [
                3,
                4,
                5
            ],
            "name" : "pCube32",
            "rotation" : [
                0,
                1,
                0,
                -6.123234262925839e-17
            ],
            "scale" : [
                0.21205700933933258,
                0.6920577883720398,
                0.21205700933933258
            ],
            "translation" : [
                0.02750551700592041,
                0.32602638006210327,
                -0.4433910846710205
            ]
        },
        {
            "mesh" : 4,
            "name" : "pSphere9_lambert3_0"
        },
        {
            "mesh" : 5,
            "name" : "pSphere9_lambert4_0"
        },
        {
            "children" : [
                7,
                8
            ],
            "name" : "pSphere9",
            "rotation" : [
                0,
                1,
                0,
                -6.123234262925839e-17
            ],
            "scale" : [
                0.15024420619010925,
                0.15024420619010925,
                0.15024420619010925
            ],
            "translation" : [
                0.4218798875808716,
                0.1957901418209076,
                -0.35361307859420776
            ]
        },
        {
            "mesh" : 6,
            "name" : "pSphere10_lambert4_0"
        },
        {
            "mesh" : 7,
            "name" : "pSphere10_lambert6_0"
        },
        {
            "children" : [
                10,
                11
            ],
            "name" : "pSphere10",
            "rotation" : [
                0,
                1,
                0,
                -6.123234262925839e-17
            ],
            "scale" : [
                0.15024420619010925,
                0.15024420619010925,
                0.15024420619010925
            ],
            "translation" : [
                -0.33770108222961426,
                0.1957901418209076,
                -0.35361307859420776
            ]
        }
    ],
    "materials" : [
        {
            "doubleSided" : true,
            "emissiveFactor" : [
                0,
                0,
                0
            ],
            "name" : "lambert3.014",
            "pbrMetallicRoughness" : {
                "baseColorFactor" : [
                    0.08021900057792664,
                    0.46206900477409363,
                    0.5711219906806946,
                    1
                ],
                "metallicFactor" : 0,
                "roughnessFactor" : 0.6000000238418579
            }
        },
        {
            "doubleSided" : true,
            "emissiveFactor" : [
                0,
                0,
                0
            ],
            "name" : "lambert4.014",
            "pbrMetallicRoughness" : {
                "baseColorFactor" : [
                    0.00972133968025446,
                    0.14702899754047394,
                    0.29177701473236084,
                    1
                ],
                "metallicFactor" : 0,
                "roughnessFactor" : 0.6000000238418579
            }
        },
        {
            "doubleSided" : true,
            "emissiveFactor" : [
                0,
                0,
                0
            ],
            "name" : "lambert6.014",
            "pbrMetallicRoughness" : {
                "baseColorFactor" : [
                    0.75,
                    0.75,
                    0.75,
                    1
                ],
                "metallicFactor" : 0,
                "roughnessFactor" : 0.6000000238418579
            }
        }
    ],
    "meshes" : [
        {
            "name" : "pCube9_lambert3_0.014",
            "primitives" : [
                {
                    "attributes" : {
                        "POSITION" : 0,
                        "NORMAL" : 1,
                        "TEXCOORD_0" : 2
                    },
                    "indices" : 3,
                    "material" : 0
                }
            ]
        },
        {
            "name" : "pCube32_lambert3_0.014",
            "primitives" : [
                {
                    "attributes" : {
                        "POSITION" : 4,
                        "NORMAL" : 5,
                        "TEXCOORD_0" : 6
                    },
                    "indices" : 7,
                    "material" : 0
                }
            ]
        },
        {
            "name" : "pCube32_lambert4_0.014",
            "primitives" : [
                {
                    "attributes" : {
                        "POSITION" : 8,
                        "NORMAL" : 9,
                        "TEXCOORD_0" : 10
                    },
                    "indices" : 11,
                    "material" : 1
                }
            ]
        },
        {
            "name" : "pCube32_lambert6_0.014",
            "primitives" : [
                {
                    "attributes" : {
                        "POSITION" : 12,
                        "NORMAL" : 13,
                        "TEXCOORD_0" : 14
                    },
                    "indices" : 15,
                    "material" : 2
                }
            ]
        },
        {
            "name" : "pSphere9_lambert3_0.014",
            "primitives" : [
                {
                    "attributes" : {
                        "POSITION" : 16,
                        "NORMAL" : 17,
                        "TEXCOORD_0" : 18
                    },
                    "indices" : 19,
                    "material" : 0
                }
            ]
        },
        {
            "name" : "pSphere9_lambert4_0.014",
            "primitives" : [
                {
                    "attributes" : {
                        "POSITION" : 20,
                        "NORMAL" : 21,
                        "TEXCOORD_0" : 22
                    },
                    "indices" : 23,
                    "material" : 1
                }
            ]
        },
        {
            "name" : "pSphere10_lambert4_0.014",
            "primitives" : [
                {
                    "attributes" : {
                        "POSITION" : 24,
                        "NORMAL" : 25,
                        "TEXCOORD_0" : 26
                    },
                    "indices" : 27,
                    "material" : 1
                }
            ]
        },
        {
            "name" : "pSphere10_lambert6_0.014",
            "primitives" : [
                {
                    "attributes" : {
                        "POSITION" : 28,
                        "NORMAL" : 29,
                        "TEXCOORD_0" : 30
                    },
                    "indices" : 31,
                    "material" : 2
                }
            ]
        }
    ],
    "accessors" : [
        {
            "bufferView" : 0,
            "componentType" : 5126,
            "count" : 24,
            "max" : [
                0.5,
                0.5,
                0.5
            ],
            "min" : [
                -0.5,
                -0.5,
                -0.5
            ],
            "type" : "VEC3"
        },
        {
            "bufferView" : 1,
            "componentType" : 5126,
            "count" : 24,
            "type" : "VEC3"
        },
        {
            "bufferView" : 2,
            "componentType" : 5126,
            "count" : 24,
            "type" : "VEC2"
        },
        {
            "bufferView" : 3,
            "componentType" : 5123,
            "count" : 36,
            "type" : "SCALAR"
        },
        {
            "bufferView" : 4,
            "componentType" : 5126,
            "count" : 42,
            "max" : [
                0.3329535722732544,
                0.3256869912147522,
                0.5
            ],
            "min" : [
                -0.3394380211830139,
                -0.2680070996284485,
                0.5
            ],
            "type" : "VEC3"
        },
        {
            "bufferView" : 5,
            "componentType" : 5126,
            "count" : 42,
            "type" : "VEC3"
        },
        {
            "bufferView" : 6,
            "componentType" : 5126,
            "count" : 42,
            "type" : "VEC2"
        },
        {
            "bufferView" : 7,
            "componentType" : 5123,
            "count" : 60,
            "type" : "SCALAR"
        },
        {
            "bufferView" : 8,
            "componentType" : 5126,
            "count" : 375,
            "max" : [
                0.5,
                0.5,
                0.5
            ],
            "min" : [
                -0.5,
                -0.5,
                -0.5
            ],
            "type" : "VEC3"
        },
        {
            "bufferView" : 9,
            "componentType" : 5126,
            "count" : 375,
            "type" : "VEC3"
        },
        {
            "bufferView" : 10,
            "componentType" : 5126,
            "count" : 375,
            "type" : "VEC2"
        },
        {
            "bufferView" : 11,
            "componentType" : 5123,
            "count" : 972,
            "type" : "SCALAR"
        },
        {
            "bufferView" : 12,
            "componentType" : 5126,
            "count" : 8,
            "max" : [
                0.3329535722732544,
                0.3256869912147522,
                0.5
            ],
            "min" : [
                -0.09171442687511444,
                -0.11619473248720169,
                0.5
            ],
            "type" : "VEC3"
        },
        {
            "bufferView" : 13,
            "componentType" : 5126,
            "count" : 8,
            "type" : "VEC3"
        },
        {
            "bufferView" : 14,
            "componentType" : 5126,
            "count" : 8,
            "type" : "VEC2"
        },
        {
            "bufferView" : 15,
            "componentType" : 5123,
            "count" : 12,
            "type" : "SCALAR"
        },
        {
            "bufferView" : 16,
            "componentType" : 5126,
            "count" : 1045,
            "max" : [
                0.9951078295707703,
                -0.4506867527961731,
                -1.2524175643920898
            ],
            "min" : [
                -0.9951078295707703,
                -1.4187700748443604,
                -3.2401299476623535
            ],
            "type" : "VEC3"
        },
        {
            "bufferView" : 17,
            "componentType" : 5126,
            "count" : 1045,
            "type" : "VEC3"
        },
        {
            "bufferView" : 18,
            "componentType" : 5126,
            "count" : 1045,
            "type" : "VEC2"
        },
        {
            "bufferView" : 19,
            "componentType" : 5123,
            "count" : 1500,
            "type" : "SCALAR"
        },
        {
            "bufferView" : 20,
            "componentType" : 5126,
            "count" : 523,
            "max" : [
                1.0565552711486816,
                0.9918428659439087,
                -1.1910473108291626
            ],
            "min" : [
                -1.0565556287765503,
                -1.1323734521865845,
                -3.3015003204345703
            ],
            "type" : "VEC3"
        },
        {
            "bufferView" : 21,
            "componentType" : 5126,
            "count" : 523,
            "type" : "VEC3"
        },
        {
            "bufferView" : 22,
            "componentType" : 5126,
            "count" : 523,
            "type" : "VEC2"
        },
        {
            "bufferView" : 23,
            "componentType" : 5123,
            "count" : 2700,
            "type" : "SCALAR"
        },
        {
            "bufferView" : 24,
            "componentType" : 5126,
            "count" : 1339,
            "max" : [
                1.0565552711486816,
                0.44840121269226074,
                -1.1910473108291626
            ],
            "min" : [
                -1.0565556287765503,
                -1.4187700748443604,
                -3.3015003204345703
            ],
            "type" : "VEC3"
        },
        {
            "bufferView" : 25,
            "componentType" : 5126,
            "count" : 1339,
            "type" : "VEC3"
        },
        {
            "bufferView" : 26,
            "componentType" : 5126,
            "count" : 1339,
            "type" : "VEC2"
        },
        {
            "bufferView" : 27,
            "componentType" : 5123,
            "count" : 3180,
            "type" : "SCALAR"
        },
        {
            "bufferView" : 28,
            "componentType" : 5126,
            "count" : 229,
            "max" : [
                0.9879871010780334,
                0.9918428659439087,
                -1.2595293521881104
            ],
            "min" : [
                -0.9879871010780334,
                -0.6729702949523926,
                -3.233018398284912
            ],
            "type" : "VEC3"
        },
        {
            "bufferView" : 29,
            "componentType" : 5126,
            "count" : 229,
            "type" : "VEC3"
        },
        {
            "bufferView" : 30,
            "componentType" : 5126,
            "count" : 229,
            "type" : "VEC2"
        },
        {
            "bufferView" : 31,
            "componentType" : 5123,
            "count" : 1020,
            "type" : "SCALAR"
        }
    ],
    "bufferViews" : [
        {
            "buffer" : 0,
            "byteLength" : 288,
            "byteOffset" : 0
        },
        {
            "buffer" : 0,
            "byteLength" : 288,
            "byteOffset" : 288
        },
        {
            "buffer" : 0,
            "byteLength" : 192,
            "byteOffset" : 576
        },
        {
            "buffer" : 0,
            "byteLength" : 72,
            "byteOffset" : 768
        },
        {
            "buffer" : 0,
            "byteLength" : 504,
            "byteOffset" : 840
        },
        {
            "buffer" : 0,
            "byteLength" : 504,
            "byteOffset" : 1344
        },
        {
            "buffer" : 0,
            "byteLength" : 336,
            "byteOffset" : 1848
        },
        {
            "buffer" : 0,
            "byteLength" : 120,
            "byteOffset" : 2184
        },
        {
            "buffer" : 0,
            "byteLength" : 4500,
            "byteOffset" : 2304
        },
        {
            "buffer" : 0,
            "byteLength" : 4500,
            "byteOffset" : 6804
        },
        {
            "buffer" : 0,
            "byteLength" : 3000,
            "byteOffset" : 11304
        },
        {
            "buffer" : 0,
            "byteLength" : 1944,
            "byteOffset" : 14304
        },
        {
            "buffer" : 0,
            "byteLength" : 96,
            "byteOffset" : 16248
        },
        {
            "buffer" : 0,
            "byteLength" : 96,
            "byteOffset" : 16344
        },
        {
            "buffer" : 0,
            "byteLength" : 64,
            "byteOffset" : 16440
        },
        {
            "buffer" : 0,
            "byteLength" : 24,
            "byteOffset" : 16504
        },
        {
            "buffer" : 0,
            "byteLength" : 12540,
            "byteOffset" : 16528
        },
        {
            "buffer" : 0,
            "byteLength" : 12540,
            "byteOffset" : 29068
        },
        {
            "buffer" : 0,
            "byteLength" : 8360,
            "byteOffset" : 41608
        },
        {
            "buffer" : 0,
            "byteLength" : 3000,
            "byteOffset" : 49968
        },
        {
            "buffer" : 0,
            "byteLength" : 6276,
            "byteOffset" : 52968
        },
        {
            "buffer" : 0,
            "byteLength" : 6276,
            "byteOffset" : 59244
        },
        {
            "buffer" : 0,
            "byteLength" : 4184,
            "byteOffset" : 65520
        },
        {
            "buffer" : 0,
            "byteLength" : 5400,
            "byteOffset" : 69704
        },
        {
            "buffer" : 0,
            "byteLength" : 16068,
            "byteOffset" : 75104
        },
        {
            "buffer" : 0,
            "byteLength" : 16068,
            "byteOffset" : 91172
        },
        {
            "buffer" : 0,
            "byteLength" : 10712,
            "byteOffset" : 107240
        },
        {
            "buffer" : 0,
            "byteLength" : 6360,
            "byteOffset" : 117952
        },
        {
            "buffer" : 0,
            "byteLength" : 2748,
            "byteOffset" : 124312
        },
        {
            "buffer" : 0,
            "byteLength" : 2748,
            "byteOffset" : 127060
        },
        {
            "buffer" : 0,
            "byteLength" : 1832,
            "byteOffset" : 129808
        },
        {
            "buffer" : 0,
            "byteLength" : 2040,
            "byteOffset" : 131640
        }
    ],
    "buffers" : [
        {
            "byteLength" : 133680,
            "uri" : "data:application/octet-stream;base64,"
        }
    ]
}
